<?xml version="1.0" encoding="UTF-8"?>
<svg width="26px" height="18px" viewBox="0 0 26 18" version="1.1" xmlns="http://www.w3.org/2000/svg" xmlns:xlink="http://www.w3.org/1999/xlink">
    <!-- Generator: Sketch 55.1 (78136) - https://sketchapp.com -->
    <title>video (3)</title>
    <desc>Created with Sketch.</desc>
    <g id="页面1" stroke="none" stroke-width="1" fill="none" fill-rule="evenodd">
        <g id="video-(3)" fill="#FFFFFF" fill-rule="nonzero">
            <path d="M24.7830839,2.43623287 C24.0201948,1.98927541 23.1121406,1.98927541 22.3492516,2.43623287 L19.2019482,4.28701441 L19.2019482,3.31755739 C19.2019482,1.48880894 17.7410311,0 15.9465431,0 L3.25540509,0 C1.46091708,0 0,1.48880898 0,3.31755739 L0,14.3624426 C0,16.191191 1.46091708,17.68 3.25540509,17.68 L15.9465431,17.68 C17.7410311,17.68 19.2019482,16.191191 19.2019482,14.3624426 L19.2019482,13.3929856 L22.3492516,15.2437671 C22.7291518,15.4672458 23.1492041,15.580559 23.5661677,15.580559 C23.9831314,15.580559 24.4031837,15.4672459 24.7830839,15.2437671 C25.5459729,14.7968097 26,13.9941748 26,13.0971123 L26,4.58288765 C26,3.68582516 25.5459729,2.88319029 24.7830839,2.43623287 Z M17.5217391,14.3655902 C17.5217391,15.2500623 16.8144453,15.9708599 15.9465431,15.9708599 L3.25540509,15.9708599 C2.38750298,15.9708599 1.6802091,15.2500623 1.6802091,14.3655902 L1.6802091,3.31755739 C1.6802091,2.43308525 2.38750298,1.71228769 3.25540509,1.71228769 L15.9465431,1.71228769 C16.8144453,1.71228769 17.5217391,2.43308525 17.5217391,3.31755739 L17.5217391,14.3655902 L17.5217391,14.3655902 Z M24.3197909,13.1002599 C24.3197909,13.5000036 24.0572583,13.6983016 23.9429793,13.7644009 C23.8287004,13.8305003 23.5291043,13.9658465 23.1893561,13.7644009 L19.2019482,11.4194481 L19.2019482,6.26369947 L23.1893561,3.91874665 C23.5291043,3.71730103 23.8287004,3.85264731 23.9429793,3.91874665 C24.0572583,3.98484598 24.3197909,4.18314401 24.3197909,4.58288765 L24.3197909,13.1002599 Z" id="形状"></path>
            <path d="M5.2,4.16 C4.62533691,4.16 4.16,4.62533694 4.16,5.2 C4.16,5.77466306 4.62533694,6.24 5.2,6.24 C5.77466306,6.24 6.24,5.77466306 6.24,5.2 C6.24,4.62533694 5.77466306,4.16 5.2,4.16 Z" id="路径"></path>
        </g>
    </g>
</svg>