<?xml version="1.0" encoding="UTF-8"?>
<svg width="24px" height="24px" viewBox="0 0 24 24" version="1.1" xmlns="http://www.w3.org/2000/svg" xmlns:xlink="http://www.w3.org/1999/xlink">
    <!-- Generator: Sketch 55.1 (78136) - https://sketchapp.com -->
    <title>替换-悬浮</title>
    <desc>Created with Sketch.</desc>
    <g id="页面1" stroke="none" stroke-width="1" fill="none" fill-rule="evenodd">
        <g id="替换-悬浮" fill-rule="nonzero">
            <path d="M17.1529323,18.7826087 L7.89052171,18.7826087 C6.98700709,18.7826087 6.26086957,18.0512472 6.26086957,17.1536715 L6.26086957,7.8898033 C6.26086957,6.98668697 6.99255011,6.26086957 7.89052171,6.26086957 L17.1529323,6.26086957 C18.0564469,6.26086957 18.7826087,6.99222758 18.7826087,7.8898033 L18.7826087,17.1481309 C18.7849491,17.58138 18.6141917,17.9976479 18.3082195,18.3045255 C18.0022472,18.6114031 17.586378,18.7834977 17.1529323,18.7826087 Z" id="路径" fill="#DDE8E7"></path>
            <path d="M9.79699774,10.8906713 L1.68124077,10.8906713 C0.754044872,10.8906713 0,10.1252286 0,9.19093851 L0,1.6941044 C0,0.759814273 0.754044872,0 1.68124077,0 L9.79699774,0 C10.2494247,0 10.6683385,0.174475873 10.986713,0.495286328 C11.3050875,0.816096807 11.4782498,1.24384408 11.4782498,1.6941044 L11.4782498,9.19093851 C11.4798723,9.64126294 11.3034457,10.0736996 10.9879585,10.3926568 C10.6724713,10.7116141 10.2439057,10.8908238 9.79699774,10.8906713 Z M9.83757243,9.17968199 L9.83757243,10.0351766 L9.83757243,9.17968199 Z M9.79141222,1.6941044 L1.68124077,1.71098917 L1.69241182,9.19093851 L9.78582671,9.17968199 L9.79141222,1.6941044 Z M3.45743534,15.6521739 L4.63039404,15.6521739 L2.73690359,12.8211622 L0.848998653,15.6521739 L2.15042425,15.6521739 L3.45743534,15.6521739 Z" id="形状" fill="#222222"></path>
            <path d="M9.88821464,23.9999992 C5.58407222,23.9999992 2.08695652,20.4823408 2.08695652,16.1654703 L2.08695652,14.4826225 C2.08695652,14.1769837 2.2493204,13.8945618 2.51288728,13.7417424 C2.77645415,13.5889231 3.10118193,13.5889231 3.36474881,13.7417424 C3.62831568,13.8945618 3.79067957,14.1769837 3.79067956,14.4826225 L3.79067956,16.1654703 C3.79067956,19.5424224 6.5256034,22.2946384 9.89381901,22.2946384 C10.3645846,22.2946384 10.7456805,22.6773596 10.7456805,23.150133 C10.7456805,23.6229063 10.3589802,23.9999992 9.88821464,23.9999992 L9.88821464,23.9999992 Z M22.3186676,23.9999996 L14.1699397,23.9999996 C13.2396172,23.9999996 12.4830297,23.240185 12.4830297,22.3058949 L12.4830297,14.8090612 C12.4830297,13.8747711 13.2396172,13.1149569 14.1699397,13.1149569 L22.3130633,13.1149569 C23.2433857,13.1149569 23.9999867,13.8747711 23.9999867,14.8090612 L23.9999867,22.3058949 C24.0017624,22.7547723 23.8253797,23.1858648 23.5098472,23.5037992 C23.1943146,23.8217337 22.7656422,24.0003023 22.3186676,23.9999996 L22.3186676,23.9999996 Z M14.1867527,14.8203177 L14.1867527,22.3058949 L22.3186676,22.2946384 L22.3074589,14.8090612 L14.1867527,14.8203177 Z M14.2160796,13.9648231 L14.2160796,14.8203177 L14.2160796,13.9648231 Z M20.5364836,8.34782609 L19.3595697,8.34782609 L21.2594451,11.1788376 L23.1537161,8.34782609 L21.847902,8.34782609 L20.5364836,8.34782609 Z" id="形状" fill="#222222"></path>
            <path d="M21.0965903,10.4347826 C20.6424371,10.4347826 20.2747894,10.0497771 20.2747894,9.57418199 L20.2747894,7.88128997 C20.2747894,4.48418223 17.6363759,1.71553941 14.3870183,1.71553941 C13.9328652,1.71553941 13.5652174,1.33053387 13.5652174,0.854938775 C13.5652174,0.37934368 13.9328652,0 14.3870183,0 C18.5392756,0 21.9130435,3.5386539 21.9130435,7.88128997 L21.9130435,9.57418199 C21.9183912,10.0497771 21.5507434,10.4347826 21.0965903,10.4347826 Z" id="路径" fill="#222222"></path>
        </g>
    </g>
</svg>