<?xml version="1.0" encoding="UTF-8"?>
<svg width="16px" height="21px" viewBox="0 0 16 21" version="1.1" xmlns="http://www.w3.org/2000/svg" xmlns:xlink="http://www.w3.org/1999/xlink">
    <!-- Generator: Sketch 55.1 (78136) - https://sketchapp.com -->
    <title>点击</title>
    <desc>Created with Sketch.</desc>
    <g id="页面1" stroke="none" stroke-width="1" fill="none" fill-rule="evenodd">
        <g id="点击" fill="#000000" fill-rule="nonzero">
            <path d="M14.1293125,9.28437499 L14.0813125,9.28437499 C13.7293125,9.28437499 13.4333125,9.38837498 13.1533125,9.55637501 C12.9053125,8.83637501 12.2813125,8.32437502 11.4733125,8.32437499 C11.1213125,8.32437499 10.7773125,8.42837498 10.4973125,8.59637501 C10.2493125,7.87637501 9.6253125,7.36437502 8.81731249,7.36437499 C8.50531249,7.36437499 8.2093125,7.44437498 7.95331249,7.58037499 L7.95331249,5.74037501 C7.95331249,4.73237501 7.19331248,3.924375 6.18531251,3.924375 C5.17731251,3.924375 4.35331252,4.740375 4.35331249,5.74037501 L4.35331249,12.804375 L3.2413125,11.692375 C2.52931249,10.980375 1.25731249,11.084375 0.6493125,11.692375 C0.0413125078,12.300375 -0.3586875,13.524375 0.513312492,14.396375 L5.63331251,19.476375 C5.7373125,19.580375 5.8573125,19.668375 5.9773125,19.740375 C6.9133125,20.500375 7.97731249,20.948375 10.2413125,20.948375 C15.4013125,20.948375 15.8813125,18.164375 15.8813125,14.724375 L15.8813125,11.084375 C15.8813125,10.100375 15.1373125,9.28437499 14.1293125,9.28437499 Z" id="路径"></path>
            <path d="M2.19331249,9.96437501 L2.19331249,7.48437499 C1.96131248,6.95637499 1.8253125,6.372375 1.8253125,5.75637499 C1.8253125,3.40437499 3.72931249,1.500375 6.08131249,1.500375 C8.43331249,1.500375 10.3373125,3.40437499 10.3373125,5.75637499 C10.3373125,6.07637498 10.2973125,6.38837498 10.2333125,6.69237499 C10.7693125,6.71637499 11.2493125,6.93237499 11.6013125,7.29237499 C11.7373125,6.804375 11.8173125,6.29237498 11.8173125,5.75637499 C11.8173125,2.58837499 9.24931249,0.0203749922 6.08131249,0.0203749922 C2.91331249,0.0203749922 0.345312492,2.58837499 0.345312492,5.748375 C0.345312492,7.42037501 1.0573125,8.916375 2.19331249,9.96437501 Z" id="路径"></path>
            <path d="M3.64131251,8.61237499 L3.64131251,7.00437499 C3.48931252,6.660375 3.40131251,6.28437499 3.40131251,5.88437501 C3.40131251,4.356375 4.6333125,3.12437501 6.16131251,3.12437501 C7.68931252,3.12437501 8.92131251,4.356375 8.92131251,5.88437501 C8.92131251,6.09237502 8.89731251,6.29237501 8.84931251,6.492375 C9.1933125,6.50837501 9.51331252,6.65237501 9.73731251,6.88437499 C9.82531252,6.564375 9.88131251,6.23637499 9.88131251,5.892375 C9.88131251,3.83637499 8.21731252,2.172375 6.16131251,2.172375 C4.1053125,2.172375 2.44131251,3.828375 2.44131251,5.88437501 C2.44131251,6.96437501 2.9053125,7.932375 3.64131251,8.61237499 Z" id="路径"></path>
        </g>
    </g>
</svg>