<?xml version="1.0" encoding="UTF-8"?>
<svg width="31px" height="32px" viewBox="0 0 31 32" version="1.1" xmlns="http://www.w3.org/2000/svg" xmlns:xlink="http://www.w3.org/1999/xlink">
    <!-- Generator: Sketch 55.1 (78136) - https://sketchapp.com -->
    <title>清除</title>
    <desc>Created with Sketch.</desc>
    <g id="页面1" stroke="none" stroke-width="1" fill="none" fill-rule="evenodd">
        <g id="清除" fill-rule="nonzero">
            <polygon id="路径" fill="#FFFFFF" points="3.15800416 16.8316008 27.1081081 16.6320166 27.1081081 24.3492723 27.3742204 30.004158 26.2432432 31.2016632 2.89189191 30.8690229 3.15800416 28.008316"></polygon>
            <path d="M26.9085239,31.002079 L26.9085239,27.6091476 C26.9085239,27.6091476 25.4449064,28.008316 23.3160083,28.3409563 C22.0519751,27.7422038 21.4532224,25.7463618 20.7879418,23.8835759 C20.5883576,23.4178794 19.9230769,25.9459459 19.9230769,26.4781705 L19.9230769,28.8066528 L17.7276507,29.006237 C16.2640332,28.3409563 15.7983368,25.7463618 15.1330561,23.9501039 C14.9334719,23.4844075 14.2681912,26.012474 14.2681913,26.5446985 L14.2681913,29.0727651 C13.5363826,29.0727651 12.8045738,29.006237 12.1392931,28.9397089 C10.7422037,28.2744283 10.2099792,25.7463618 9.54469853,23.9501039 C9.34511434,23.4844075 8.67983366,26.012474 8.67983369,26.5446985 L8.67983369,28.6070686 C5.41995844,28.2079002 3.22453222,27.6091476 3.22453222,27.6091476 L3.22453222,31.002079 L8.87941787,31.002079 C9.14553016,31.2681913 9.74428275,31.4677755 10.2099792,31.6008316 C10.6756757,31.4677755 11.2744283,31.2681913 11.5405405,31.002079 L14.4677755,31.002079 C14.7338877,31.2681913 15.3326403,31.4677755 15.7983368,31.6008316 C16.2640333,31.4677755 16.8627859,31.2681913 17.1288981,31.002079 L20.1226611,31.002079 C20.3887734,31.2681913 20.987526,31.4677755 21.4532225,31.6008316 C21.9189189,31.4677755 22.5176715,31.2681913 22.7837838,31.002079 L26.9085239,31.002079 L26.9085239,31.002079 Z M21.985447,31.7008316 C21.8523909,31.7008316 21.5862786,31.6008316 21.3866944,31.6008316 C21.1205821,31.7008316 20.9209979,31.7008316 20.7879418,31.7008316 L21.985447,31.7008316 Z M10.8087318,31.7008316 C10.6756757,31.7008316 10.4095634,31.6008316 10.2099792,31.6008316 C9.94386694,31.7008316 9.74428275,31.7008316 9.61122663,31.7008316 L10.8087318,31.7008316 Z M16.3970894,31.7008316 C16.2640333,31.7008316 15.997921,31.6008316 15.7983368,31.6008316 C15.5322245,31.7008316 15.3326403,31.7008316 15.1995842,31.7008316 L16.3970894,31.7008316 Z" id="形状" fill="#DCE8E7"></path>
            <path d="M28.1060291,8.5155925 L19.1912682,8.5155925 L19.1912682,3.45945947 C19.1912682,1.53014553 17.6611227,0 15.7983368,0 L14.2016632,0 C12.3388773,0 10.8087318,1.53014553 10.7422038,3.45945947 L10.7422038,8.5155925 L1.89397091,8.5155925 C0.896049906,8.5155925 0.0311850313,9.38045738 0.0311850313,10.3783784 L0.0311850313,15.7006237 C0.0311850313,16.6985447 0.829521844,17.5634096 1.89397091,17.5634096 L2.42619544,17.5634096 L2.42619544,25.8794179 C2.42619544,27.3430353 2.22661125,28.4074844 2.02702703,29.1392931 C1.96049897,29.5384615 1.89397091,29.8711018 1.89397091,30.1372141 C1.89397091,31.1351351 2.69230772,32 3.75675675,32 L26.3097713,32 C27.3076923,32 28.1725572,31.1351351 28.1725572,30.1372141 L28.1725572,29.9376299 C28.1725572,29.9376299 27.6403327,28.008316 27.6403326,25.7463617 L27.6403326,17.4968815 L28.1725572,17.4968815 C29.1704782,17.4968815 30.035343,16.6320166 30.035343,15.6340956 L30.035343,10.3118503 C29.968815,9.31392931 29.1704782,8.51559253 28.1060291,8.5155925 Z M26.5093555,30.1372141 C26.5093555,30.2702702 26.3762994,30.3367983 26.2432432,30.3367983 L21.1871102,30.3367983 L21.1871102,24.016632 C21.1871102,23.5509356 20.8544698,23.2182952 20.3887734,23.2182952 C19.9230769,23.2182952 19.5904366,23.5509356 19.5904366,24.016632 L19.5904366,30.3367983 L15.5987526,30.3367983 L15.5987526,24.016632 C15.5987526,23.5509356 15.2661122,23.2182952 14.8004158,23.2182952 C14.3347194,23.2182952 14.002079,23.5509356 14.002079,24.016632 L14.002079,30.3367983 L10.010395,30.3367983 L10.010395,24.016632 C10.010395,23.5509356 9.67775466,23.2182952 9.21205822,23.2182952 C8.74636178,23.2182952 8.41372141,23.5509356 8.41372141,24.016632 L8.41372141,30.3367983 L3.75675675,30.3367983 C3.62370062,30.3367983 3.4906445,30.2037422 3.4906445,30.0706861 C3.4906445,29.9376299 3.55717256,29.6715177 3.62370062,29.4054054 C3.75675675,28.6070686 4.02286903,27.4760915 4.02286903,25.8128898 L4.02286903,17.4968815 L26.043659,17.4968815 L26.043659,25.6798337 C25.977131,27.8087318 26.3762994,29.6049896 26.5093555,30.1372141 Z" id="形状" fill="#222222"></path>
            <path d="M1.89397091,10.1122661 C1.76091478,10.1122661 1.62785863,10.2453223 1.62785863,10.3783784 L1.62785863,15.7006237 C1.62785863,15.8336798 1.76091475,15.966736 1.89397091,15.966736 L28.1725572,15.966736 C28.3056133,15.966736 28.4386694,15.8336798 28.4386694,15.7006237 L28.4386694,10.3783784 C28.4386694,10.2453223 28.3056133,10.1122661 28.1725572,10.1122661 L17.5945946,10.1122661 L17.5945946,3.45945947 C17.5945946,2.46153847 16.7962578,1.59667359 15.7983368,1.59667359 L14.2016632,1.59667359 C13.2037422,1.59667359 12.4054054,2.46153847 12.4054054,3.45945947 L12.4054054,10.1122661 L1.89397091,10.1122661 Z" id="路径" fill="#DDE8E7"></path>
        </g>
    </g>
</svg>