<?xml version="1.0" standalone="no"?><!DOCTYPE svg PUBLIC "-//W3C//DTD SVG 1.1//EN" "http://www.w3.org/Graphics/SVG/1.1/DTD/svg11.dtd"><svg t="1570256164931" class="icon" viewBox="0 0 1024 1024" version="1.1" xmlns="http://www.w3.org/2000/svg" p-id="2887" xmlns:xlink="http://www.w3.org/1999/xlink" width="32" height="32"><defs><style type="text/css"></style></defs><path d="M501.76 588.8c-10.24 10.24-10.24 20.48 0 25.6 10.24 10.24 20.48 10.24 30.72 0l199.68-199.68c10.24-10.24 10.24-20.48 0-30.72-10.24-10.24-20.48-10.24-30.72 0L501.76 588.8z" fill="#474443" p-id="2888"></path><path d="M327.68 389.12c-10.24-10.24-20.48-10.24-30.72 0-10.24 10.24-10.24 20.48 0 30.72l199.68 199.68c10.24 10.24 20.48 10.24 30.72 0 10.24-10.24 10.24-20.48 0-25.6l-199.68-204.8z" fill="#474443" p-id="2889"></path></svg>