<?xml version="1.0" encoding="UTF-8"?>
<svg width="30px" height="30px" viewBox="0 0 30 30" version="1.1" xmlns="http://www.w3.org/2000/svg" xmlns:xlink="http://www.w3.org/1999/xlink">
    <!-- Generator: Sketch 55.1 (78136) - https://sketchapp.com -->
    <title>编组 3</title>
    <desc>Created with Sketch.</desc>
    <g id="页面1" stroke="none" stroke-width="1" fill="none" fill-rule="evenodd">
        <g id="编组-3">
            <rect id="矩形" stroke="#000000" stroke-width="1.3" fill="#F9F9F9" x="0.65" y="0.65" width="28.7" height="28.7" rx="4"></rect>
            <g id="编组-2" transform="translate(5.000000, 7.000000)" fill="#000000">
                <polygon id="路径" points="0.9154375 1.8309375 3.661875 1.8309375 3.661875 8.2390625 2.74634375 8.2390625 2.74634375 9.15453125 6.4081875 9.15453125 6.4081875 8.23909375 5.49275 8.23909375 5.49275 1.8309375 8.2390625 1.8309375 8.2390625 2.74634375 9.1545 2.74634375 9.1545 3.125e-05 4.88498131e-14 3.125e-05 4.88498131e-14 2.74634375 0.9154375 2.74634375"></polygon>
                <polygon id="路径" points="10.9855 3.661875 20.1400312 3.661875 20.1400312 5.49275 10.9855 5.49275"></polygon>
                <polygon id="路径" points="10.9855 7.32365625 20.1400312 7.32365625 20.1400312 9.15453125 10.9855 9.15453125 10.9855 7.32365625"></polygon>
                <polygon id="路径" points="-3.55271368e-15 10.9855313 20.1400312 10.9855313 20.1400312 12.8164063 3.125e-05 12.8164063 3.125e-05 10.9855625"></polygon>
                <polygon id="路径" points="-3.55271368e-15 14.6472812 20.1400312 14.6472812 20.1400312 16.4781562 3.125e-05 16.4781562 3.125e-05 14.6472812"></polygon>
                <polygon id="路径" points="10.9855 -8.8817842e-16 20.1400312 -8.8817842e-16 20.1400312 1.83090625 10.9855 1.83090625"></polygon>
            </g>
        </g>
    </g>
</svg>