<?xml version="1.0" encoding="UTF-8"?>
<svg width="94px" height="70px" viewBox="0 0 94 70" version="1.1" xmlns="http://www.w3.org/2000/svg" xmlns:xlink="http://www.w3.org/1999/xlink">
    <!-- Generator: Sketch 55.1 (78136) - https://sketchapp.com -->
    <title>空态</title>
    <desc>Created with Sketch.</desc>
    <g id="页面1" stroke="none" stroke-width="1" fill="none" fill-rule="evenodd">
        <g id="空态" fill-rule="nonzero">
            <path d="M1,59.5 C1,63.2512403 9.76677543,66.7175914 23.9994861,68.5932535 C38.2321968,70.4689155 55.7678032,70.4689155 70.0005139,68.5932535 C84.2332246,66.7175914 93,63.2512403 93,59.5 C93,55.7487597 84.2332246,52.2824086 70.0005139,50.4067465 C55.7678032,48.5310845 38.2321968,48.5310845 23.9994861,50.4067465 C9.76677543,52.2824086 1,55.7487597 1,59.5 L1,59.5 Z" id="路径" fill="#ECF2F2"></path>
            <polygon id="路径" fill="#FFFFFF" points="51 22.5693642 51 65 10 52.7456648 10 12"></polygon>
            <path d="M51.2363636,66 L51.0836363,66 L10.6109091,53.6404495 C10.1527273,53.4859551 10,53.1769663 10,52.8679775 L10,11.7724719 C10,11.4634831 10.1527273,11.3089887 10.3054546,11.1544944 C10.4581818,11 10.7636364,11 10.9163637,11 L51.3890909,21.6601124 C51.6945454,21.8146068 52,22.1235955 52,22.4325842 L52,65.2275281 C52,65.5365168 51.8472727,65.6910112 51.6945454,65.8455056 C51.5418182,66 51.3890909,66 51.2363636,66 Z M11.5272728,52.25 L50.4727272,64.1460674 L50.4727272,23.0505618 L11.5272728,12.6994382 L11.5272728,52.25 Z" id="形状" fill="#333333"></path>
            <polygon id="路径" fill="#DFEBEA" points="51 65 82.6878049 51.4615385 83 11 51 22.5384615"></polygon>
            <path d="M51.7674419,66 C51.6139535,66 51.4604651,66 51.3069767,65.8450531 C51.1534884,65.6901063 51,65.5351594 51,65.2252657 L51,22.4599304 C51,22.1500367 51.1534884,21.8401429 51.4604651,21.6851961 L82.9255814,10.0641811 C83.2325581,9.90923423 83.3860465,10.0641811 83.6930233,10.219128 C83.8465116,10.3740748 84,10.5290217 84,10.8389154 L83.6930233,51.5899414 C83.6930233,51.8998351 83.5395349,52.2097289 83.2325581,52.3646757 L52.0744186,66 L51.7674419,66 Z M52.5348837,22.924771 L52.5348837,63.9856908 L82.1581396,50.9701539 L82.4651163,11.7685966 L52.5348837,22.924771 Z" id="形状" fill="#333333"></path>
            <polygon id="路径" fill="#AACAC9" points="10 12.6535433 41 1 40.6915423 21"></polygon>
            <path d="M40.9333333,21 L40.7809524,21 L10.4571429,12.7555555 C10.152381,12.6 10,12.4444444 10,12.1333333 C10,11.8222222 10.152381,11.6666666 10.4571429,11.5111111 L41.0857143,0 L41.6952381,0 C41.847619,0.155555559 42,0.311111117 42,0.466666676 L41.6952381,20.2222222 C41.6952381,20.3777778 41.5428571,20.5333333 41.3904762,20.6888889 C41.2380952,21 41.0857143,21 40.9333333,21 L40.9333333,21 Z M12.5904762,11.9777777 L40.3238095,19.4444444 L40.6285714,1.39999996 L12.5904762,11.9777777 Z" id="形状" fill="#333333"></path>
            <polygon id="路径" fill="#DFEBEA" points="41 20.1172414 51.6544118 23 83 11.3172414 41.4632353 1"></polygon>
            <path d="M52.283688,24 L52.1312057,24 L41.6099291,21.0580645 C41.3049645,20.9032258 41,20.5935484 41,20.283871 L41.4574468,0.774193564 C41.4574468,0.464516138 41.6099291,0.309677426 41.7624114,0.154838713 C41.9148936,0 42.2198582,0 42.3723405,0 L83.3900709,10.5290323 C83.6950355,10.683871 84,10.9935484 84,11.3032258 C84,11.6129033 83.8475177,11.9225807 83.5425532,12.0774193 L52.5886525,24 L52.283688,24 Z M42.5248227,19.6645161 L52.283688,22.4516129 L80.7978723,11.4580645 L42.9822695,1.70322577 L42.5248227,19.6645161 Z" id="形状" fill="#333333"></path>
            <polygon id="路径" fill="#DFEBEA" points="51 22.3471502 61.9632353 41 93 27.0103627 82.9632353 11"></polygon>
            <path d="M62.5198939,42 C62.2157383,42 62.0636605,41.8468321 61.9115827,41.6936642 L51.1140584,23.3135188 C50.9619805,23.1603509 50.9619805,22.8540151 51.1140584,22.7008472 C51.2661362,22.5476794 51.418214,22.2413436 51.5702918,22.2413437 L83.0503979,11.0600885 C83.3545535,10.9069206 83.8107869,11.0600885 83.9628647,11.3664243 L93.8479222,27.1427157 C94,27.2958836 94,27.6022194 94,27.7553873 C94,27.9085552 93.8479222,28.2148909 93.5437666,28.2148909 L62.9761273,42 L62.5198939,42 L62.5198939,42 Z M52.7869143,23.3135188 L62.8240495,40.3151533 L92.0229885,27.1427157 L82.8983201,12.5917673 L52.7869143,23.3135188 Z" id="形状" fill="#333333"></path>
            <polygon id="路径" fill="#DFEBEA" points="52 22.4804469 41.0933735 40 1 28.5810056 10.8313253 12"></polygon>
            <path d="M40.4915254,41 L40.338983,41 L0.525423739,29.7989418 C0.220338987,29.7989418 0.0677966115,29.4920635 0.0677966115,29.3386244 C-0.0847457644,29.1851852 0.0677966115,28.8783069 0.0677966115,28.7248677 L9.83050846,12.3068782 C9.98305084,12.1534391 10.2881356,12 10.5932203,12 L51.4745763,22.2804233 C51.779661,22.2804233 51.9322034,22.4338625 51.9322034,22.7407408 C52.0847458,22.8941799 51.9322034,23.2010582 51.9322034,23.5079365 L41.1016949,40.6931217 C40.9491525,40.8465608 40.7966102,41 40.4915254,41 Z M1.89830505,28.5714286 L40.1864407,39.3121693 L50.1016949,23.5079365 L10.7457627,13.6878307 L1.89830505,28.5714286 Z" id="形状" fill="#333333"></path>
        </g>
    </g>
</svg>