<?xml version="1.0" encoding="UTF-8"?>
<svg width="26px" height="26px" viewBox="0 0 26 26" version="1.1" xmlns="http://www.w3.org/2000/svg" xmlns:xlink="http://www.w3.org/1999/xlink">
    <!-- Generator: Sketch 55.1 (78136) - https://sketchapp.com -->
    <title>导出_export</title>
    <desc>Created with Sketch.</desc>
    <g id="页面1" stroke="none" stroke-width="1" fill="none" fill-rule="evenodd">
        <g id="导出_export" fill="#A2A7AD" fill-rule="nonzero">
            <path d="M22.4125,21.8425 L22.4125,17.8425 C22.4125,16.8825 23.0525,16.2425 24.0125,16.2425 C24.9725,16.2425 25.6125,16.8825 25.6125,17.8425 L25.6125,22.6425 C25.6125,23.9225 24.6525,25.0425 23.3725,25.0425 L2.2525,25.0425 C0.9725,25.0425 0.0125,23.9225 0.0125,22.6425 L0.0125,17.8425 C0.0125,16.8825 0.6525,16.2425 1.6125,16.2425 C2.5725,16.2425 3.2125,16.8825 3.2125,17.8425 L3.2125,21.8425 L22.4125,21.8425 Z M11.2125,5.3625 L9.2925,7.2825 C8.6525,7.9225 7.6925,7.9225 7.0525,7.2825 C6.4125,6.8025 6.4125,5.6825 7.0525,5.0425 L11.5325,0.5625 C12.0125,0.0825 12.6525,-0.0775 13.1325,0.0825 C13.4525,0.0825 13.7725,0.2425 13.9325,0.5625 L18.4125,5.0425 C19.0525,5.6825 19.0525,6.6425 18.4125,7.2825 C17.7725,7.9225 16.8125,7.9225 16.1725,7.2825 L14.4125,5.6825 L14.4125,16.0825 C14.4125,17.0425 13.7725,17.6825 12.8125,17.6825 C11.8525,17.6825 11.2125,17.0425 11.2125,16.0825 L11.2125,5.3625 Z" id="形状"></path>
        </g>
    </g>
</svg>