<?xml version="1.0" encoding="UTF-8"?>
<svg width="26px" height="24px" viewBox="0 0 26 24" version="1.1" xmlns="http://www.w3.org/2000/svg" xmlns:xlink="http://www.w3.org/1999/xlink">
    <!-- Generator: Sketch 55.1 (78136) - https://sketchapp.com -->
    <title>文件 (1)</title>
    <desc>Created with Sketch.</desc>
    <g id="页面1" stroke="none" stroke-width="1" fill="none" fill-rule="evenodd">
        <g id="文件-(1)" fill="#A2A7AD" fill-rule="nonzero">
            <path d="M25.5325,8.5769 C25.5325,8.0185 25.3725,7.8585 24.8141,7.8585 L0.8845,7.8585 C0.3261,7.8585 0.0845,8.0185 0.0845,8.6585 L0.0845,21.1817 C0.0845,22.8569 0.8029,23.5817 2.3981,23.5817 L23.2989,23.5817 C24.8989,23.5817 25.6125,22.8633 25.6125,21.2681 C25.5325,16.9529 25.5325,12.8041 25.5325,8.5769 L25.5325,8.5769 Z M0.7245,6.5817 L24.1725,6.5817 C25.5293,6.5817 25.5293,6.5817 25.5293,5.3017 C25.5293,3.7865 24.8893,3.2217 23.4493,3.2217 L13.3277,3.2217 C12.0477,3.2217 12.0477,3.2217 12.0477,1.9417 C12.0477,0.5849 11.4077,0.0217 10.0541,0.0217 L2.0813,0.0217 C0.6413,-0.0583 0.0877,0.5017 0.0013,1.9417 L0.0013,5.8649 C0.0125,6.5033 0.1725,6.5817 0.7245,6.5817 Z" id="形状"></path>
        </g>
    </g>
</svg>