<?xml version="1.0" encoding="UTF-8"?>
<svg width="24px" height="24px" viewBox="0 0 24 24" version="1.1" xmlns="http://www.w3.org/2000/svg" xmlns:xlink="http://www.w3.org/1999/xlink">
    <!-- Generator: Sketch 55.1 (78136) - https://sketchapp.com -->
    <title>exit_full_screen</title>
    <desc>Created with Sketch.</desc>
    <g id="页面1" stroke="none" stroke-width="1" fill="none" fill-rule="evenodd">
        <g id="exit_full_screen" fill="#ffffff" fill-rule="nonzero">
            <path d="M14.5802799,8.98987359 C14.654803,9.05603489 14.7274624,9.12426597 14.7981732,9.19448693 C14.8685335,9.26491894 14.9410571,9.33315606 15.0156399,9.39910026 C15.0922799,9.46744692 15.1825999,9.55286027 15.2849199,9.65494026 C15.4553199,9.8420336 15.6265199,9.96163359 15.7969199,10.0124603 C15.9681466,10.0637136 16.1299866,10.0680069 16.2832399,10.0252603 C16.4377732,9.98259361 16.5824665,9.91464694 16.7194532,9.8206736 C16.847452,9.73364542 16.9673739,9.63529461 17.0777732,9.52680694 C17.4988454,9.10763377 17.9130078,8.68157636 18.3200932,8.24880694 C18.6698532,7.87376693 19.0756932,7.45688693 19.5367332,6.99643359 C19.7584932,6.77472694 19.9553999,6.63422025 20.1257999,6.57483359 C20.2970266,6.51504691 20.4841199,6.57867359 20.6900399,6.76662026 C20.8775332,6.95371359 21.1078532,7.1715536 21.3813999,7.41800693 C21.6082527,7.62139997 21.8302095,7.83018853 22.0470799,8.0441936 C22.3373199,8.35088693 22.5980399,8.43632693 22.8283599,8.29963359 C23.0586799,8.16336694 23.1999333,7.84816692 23.2512932,7.3539536 C23.3078671,6.84669874 23.3676639,6.3398085 23.4306799,5.8333136 C23.4987599,5.27974027 23.5676665,4.72147359 23.6357466,4.15891359 C23.7024281,3.60979737 23.7663578,3.06035047 23.8275332,2.51059359 C23.8874532,1.97366025 23.9345466,1.49227359 23.9687866,1.0664336 C24.0030532,0.640566939 23.9345466,0.346700269 23.7637199,0.184806939 C23.5933466,0.0229402285 23.2851332,-0.0326063715 22.8411866,0.0182202285 C22.3801199,0.0694735985 21.8681199,0.129286919 21.3047599,0.197180269 C20.7413999,0.265526929 20.1647599,0.329180269 19.5752666,0.388966919 C18.9857999,0.449206919 18.4138532,0.513286919 17.8594799,0.581606929 C17.3599756,0.643172469 16.8602387,0.702835129 16.3602799,0.760593589 C15.9167866,0.811846919 15.6607866,0.947686919 15.5922799,1.16936693 C15.5242266,1.39104694 15.6346799,1.64648693 15.9253466,1.93608694 C16.0965732,2.10648694 16.3012132,2.32350028 16.5405199,2.58790027 C16.7315216,2.80146277 16.9279411,3.01011733 17.1295866,3.21366026 C17.3688666,3.41827359 17.4279599,3.63952692 17.3089466,3.87830027 C17.1890799,4.1170736 16.9673466,4.38915361 16.6432666,4.69627359 C16.2539427,5.08312137 15.8696263,5.47497621 15.4904132,5.87174027 L14.5173466,6.89390027 C14.1581732,7.23435361 13.9453999,7.53291361 13.8764932,7.7883536 C13.8084132,8.04376695 13.9453999,8.34192694 14.2861732,8.6823536 C14.4051866,8.81947359 14.5032399,8.92198027 14.5802799,8.98990027 L14.5802799,8.98987359 Z M9.36065116,14.8959425 L9.15558449,14.6661559 C9.08753115,14.5982359 9.01433115,14.5298892 8.93771783,14.4615425 C8.8459045,14.3788759 8.7563845,14.2937025 8.66929117,14.2061025 C8.4813445,14.0186092 8.30625116,13.9037025 8.14401116,13.8609825 C7.99256452,13.8182973 7.83168912,13.8229217 7.68294449,13.8742359 C7.53739782,13.9254892 7.40555783,14.0019425 7.28569117,14.1040225 C7.17087627,14.2020473 7.05977604,14.3043414 6.95262449,14.4106892 C6.72406087,14.6385606 6.49773887,14.8686695 6.27369116,15.1009825 C6.06006449,15.3226625 5.8507045,15.5353825 5.64609116,15.7395425 C5.43915183,15.9462749 5.23422659,16.1550137 5.0313445,16.3657292 C4.82001946,16.584831 4.60667704,16.801978 4.39134449,17.0171425 C4.18627782,17.2392492 4.01547782,17.3622625 3.8793445,17.3878892 C3.74235784,17.4135159 3.57155783,17.3238092 3.36649117,17.1196225 C3.12817695,16.8841789 2.88467724,16.6540425 2.63617117,16.4293825 C2.39691856,16.2126632 2.16199227,15.9912151 1.93153117,15.7651692 C1.64169116,15.4755692 1.38139782,15.3944225 1.15110449,15.5221292 C0.920784484,15.6498626 0.779531144,15.9697826 0.728171174,16.4806359 C0.676784504,16.9406625 0.616837844,17.4476759 0.548784484,18.0012759 C0.479851144,18.5552759 0.411797824,19.1131159 0.343717824,19.6756759 C0.276685964,20.2249089 0.212613924,20.7744991 0.151504494,21.3244225 C0.0924377935,21.8609025 0.0444911935,22.3422892 0.0111044935,22.7681559 C-0.0231622065,23.1769559 0.0491844935,23.4622892 0.228571164,23.6245825 C0.407931154,23.7864492 0.711451164,23.8501025 1.1378245,23.8163692 C1.65463865,23.75885 2.17121199,23.6991873 2.68753117,23.6373825 C3.26805423,23.568195 3.84869508,23.4999994 4.42945117,23.4327959 C4.9973816,23.3669931 5.56503112,23.2987881 6.13238448,23.2281825 C6.67950449,23.1602625 7.17438449,23.1004759 7.6183045,23.0492225 C8.06225115,22.9979692 8.3229445,22.8621292 8.39958449,22.6404225 C8.47622448,22.4187692 8.36961116,22.1633292 8.07979782,21.8737292 C7.90857116,21.7033025 7.71678449,21.5033825 7.50315782,21.2731692 C7.31952565,21.0729705 7.12712411,20.880996 6.92651783,20.6978092 C6.7039045,20.4761292 6.6315845,20.2676759 6.70862448,20.0716225 C6.78523782,19.8759959 6.97787781,19.6244225 7.28526449,19.3177025 C7.68914154,18.9153798 8.09055349,18.51059 8.48947782,18.1033559 C8.82880827,17.7563939 9.17029042,17.4115428 9.51390449,17.0688225 C9.87222449,16.7108492 10.0734512,16.3913025 10.1158512,16.1102892 C10.1582245,15.8287959 10.0088112,15.5178359 9.66721117,15.1774092 L9.36067783,14.8959159 L9.36065116,14.8959425 Z M22.4732003,14.0143051 C22.0757804,14.0136896 21.694353,14.170797 21.4126669,14.4511467 C21.1313434,14.7311252 20.9730499,15.1115785 20.9727469,15.50848 L20.9727469,19.486 C20.9727853,19.8824827 20.8150141,20.2626765 20.5342669,20.54264 C20.2531463,20.8229906 19.8722741,20.9803438 19.4752536,20.98016 L15.4888536,20.98016 C15.0912654,20.9795097 14.7097497,21.1370474 14.4284536,21.4180267 C14.1475271,21.6986502 13.9902032,22.0797792 13.9913803,22.4768533 C13.9913803,23.30336 14.6776269,23.9735468 15.4858669,23.9735468 L20.9778669,23.9735468 C22.6320269,23.9739733 23.9732536,22.6306133 23.9732536,20.98528 L23.9732536,15.5050667 C23.9732536,15.1084489 23.8150593,14.7282132 23.5336536,14.44872 C23.2518816,14.1688412 22.8703457,14.0125503 22.4732003,14.0143051 Z M1.5000536,9.96012176 C1.89754798,9.96071741 2.27904341,9.80355772 2.56074694,9.52312001 C2.84207717,9.24304995 3.00031719,8.86249091 3.00050693,8.46552 L3.00050693,4.48840001 C3.00035529,4.09184787 3.15807297,3.71154839 3.43882692,3.43149333 C3.71995851,3.15106123 4.10088784,2.99365622 4.49797359,2.99383999 L8.48437359,2.99383999 C8.8819787,2.99448321 9.26350637,2.83692532 9.54480026,2.55592001 C9.82572021,2.27530295 9.98304358,1.89418494 9.98187348,1.49712 C9.98187348,0.670186664 9.29562694,0 8.48738693,0 L2.99538694,0 C1.34120027,0 -1.00861945e-07,1.34335999 -1.00861945e-07,2.98826667 L-1.00861945e-07,8.46853334 C-0.000274968032,8.86529899 0.157854166,9.2457573 0.439280273,9.52543999 C0.721087142,9.80549521 1.10275918,9.96189066 1.5000536,9.96012176 L1.5000536,9.96012176 Z" id="Shape"></path>
        </g>
    </g>
</svg>
