<?xml version="1.0" standalone="no"?><!DOCTYPE svg PUBLIC "-//W3C//DTD SVG 1.1//EN" "http://www.w3.org/Graphics/SVG/1.1/DTD/svg11.dtd"><svg t="1571276389492" class="icon" viewBox="0 0 1024 1024" version="1.1" xmlns="http://www.w3.org/2000/svg" p-id="22090" xmlns:xlink="http://www.w3.org/1999/xlink" width="32" height="32"><defs><style type="text/css"></style></defs><path d="M64.2 511.8a447.6 447.6 0 1 0 895.2 0 447.6 447.6 0 1 0-895.2 0z" fill="#FF5F5F" p-id="22091"></path><path d="M280.4 472.1l5.5-7.5 26.9-20.2s198-109.7 410.8 2c0 0 53 49.5 13.4 115.6l-12.8 12.8-115.7-39.1s-20.4-10.3-13-38.6c0 0 7.4-24.1-22.8-28.8 0 0-75.4-17.7-138-0.8 0 0-11.6 2.1-6.1 16 0 0 13 38.6 0.2 51.4l-115.3 38s-22.5 4.5-25.8-25.8c-0.2-0.2-14-47.2-7.3-75z" fill="#FFFFFF" p-id="22092"></path></svg>