<?xml version="1.0" encoding="UTF-8"?>
<svg width="28px" height="28px" viewBox="0 0 28 28" version="1.1" xmlns="http://www.w3.org/2000/svg" xmlns:xlink="http://www.w3.org/1999/xlink">
    <!-- Generator: Sketch 55.1 (78136) - https://sketchapp.com -->
    <title>图片 (2)</title>
    <desc>Created with Sketch.</desc>
    <g id="页面1" stroke="none" stroke-width="1" fill="none" fill-rule="evenodd">
        <g id="图片-(2)" fill-rule="nonzero">
            <path d="M0.658598602,0.6125 L27.4101514,0.6125 C27.4784744,0.6125 27.534375,0.668278721 27.534375,0.736452714 L27.534375,27.4885473 C27.534375,27.5567213 27.4784744,27.6125 27.4101514,27.6125 L0.658598602,27.6125 C0.590275621,27.6125 0.534375,27.5567213 0.534375,27.4885473 L0.534375,0.736452714 C0.534375,0.668278721 0.590275621,0.6125 0.658598602,0.6125 Z" id="路径" fill="#FFFFFF"></path>
            <path d="M4.534375,6.75 C4.534375,8.0927423 5.62568092,9.18125 6.971875,9.18125 C8.31806908,9.18125 9.409375,8.0927423 9.409375,6.75 C9.409375,5.4072577 8.31806908,4.31875 6.971875,4.31875 C5.62568092,4.31875 4.534375,5.4072577 4.534375,6.75 Z" id="路径" fill="#ECF2F2"></path>
            <path d="M6.971875,9.471875 C5.465625,9.471875 4.240625,8.25 4.240625,6.75 C4.240625,5.25 5.465625,4.028125 6.971875,4.028125 C8.478125,4.028125 9.703125,5.25 9.703125,6.75 C9.703125,8.25 8.475,9.471875 6.971875,9.471875 Z M6.971875,4.6125 C5.790625,4.615625 4.834375,5.575 4.84059454,6.75625 C4.84375,7.9375 5.803125,8.89375 6.984375,8.88753046 C8.1625,8.884375 9.115625,7.928125 9.115625,6.75 C9.1125,5.56875 8.153125,4.6125 6.971875,4.6125 Z" id="形状" fill="#5B908E"></path>
            <path d="M27.625,12.778125 C26.640625,12.5125 25.628125,12.34375 24.609375,12.28125 C21.159375,12.0625 17.9375,12.984375 15.275,14.696875 C14.509375,15.190625 13.85,15.821875 13.2375,16.496875 C9.996875,20.075 4.875,21.2625 0.390625,19.475 L0.390625,27.484375 L27.625,27.484375 L27.625,12.778125 Z" id="路径" fill="#5B908E"></path>
            <path d="M27.625,12.475 C26.64375,12.215625 25.640625,12.053125 24.628125,11.990625 C21.2375,11.775 17.95,12.628125 15.115625,14.453125 C14.428125,14.896875 13.7625,15.484375 13.021875,16.3 C9.834375,19.81875 4.784375,20.9625 0.390625,19.1625 L0.390625,19.790625 C4.96875,21.55625 10.159375,20.325 13.45625,16.690625 C14.1625,15.909375 14.790625,15.35625 15.434375,14.940625 C18.1625,13.184375 21.328125,12.3625 24.590625,12.56875 C25.615625,12.634375 26.634375,12.803125 27.625,13.075 L27.625,12.475 Z" id="路径" fill="#5B908E"></path>
            <path d="M28,28 C9.70757235,28 0.374239021,28 -2.84217094e-14,28 L-2.84217094e-14,4.54747351e-13 C0.80749829,4.54747351e-13 27.3774775,4.54747351e-13 28,4.54747351e-13 C28,18.0545651 28,27.3878984 28,28 Z M0.584375,0.584375 C0.584375,18.340153 0.584375,27.3068229 0.584375,27.4843848 L27.415625,27.415625 C27.415625,26.9925181 27.415625,18.0487681 27.415625,0.584375 C27.0765983,0.584375 0.872271769,0.584375 0.584375,0.584375 Z" id="形状" fill="#5B908E"></path>
        </g>
    </g>
</svg>