<?xml version="1.0" encoding="UTF-8"?>
<svg width="25px" height="22px" viewBox="0 0 25 22" version="1.1" xmlns="http://www.w3.org/2000/svg" xmlns:xlink="http://www.w3.org/1999/xlink">
    <!-- Generator: Sketch 55.1 (78136) - https://sketchapp.com -->
    <title>收起 (2)</title>
    <desc>Created with Sketch.</desc>
    <g id="页面1" stroke="none" stroke-width="1" fill="none" fill-rule="evenodd">
        <g id="收起-(2)" fill="#A2A7AD" fill-rule="nonzero">
            <path d="M23.6600382,0 L1.33924745,0 C0.599601506,0 0,0.615649512 0,1.37509167 C0,2.13453383 0.599601506,2.75018335 1.33924745,2.75018335 L23.6586097,2.75018335 C24.3812352,2.7259476 24.954826,2.11745358 24.954826,1.37509167 C24.954826,0.632729763 24.3812352,0.0242357452 23.6586097,0 L23.6600382,0 Z M23.6600382,9.62637509 L10.2675638,9.62637509 C9.52791783,9.62637509 8.92831632,10.2420246 8.92831632,11.0014668 C8.92831632,11.7609089 9.52791783,12.3765584 10.2675638,12.3765584 L23.6600382,12.3765584 C24.1387605,12.3765584 24.581118,12.1143277 24.8204792,11.6886459 C25.0598403,11.2629642 25.0598403,10.7385026 24.8204792,10.3128208 C24.581118,9.88713908 24.1387605,9.62490833 23.6600382,9.62490833 L23.6600382,9.62637509 Z M4.98485757,6.51830122 L0.377846347,10.6560437 C0.280929821,10.7429477 0.225320905,10.8686174 0.225320905,11.0007334 C0.225320905,11.1328494 0.280929821,11.258519 0.377846347,11.345423 L4.9862861,15.4684979 C5.05180273,15.527641 5.14490493,15.542094 5.22452167,15.5054812 C5.30413842,15.4688683 5.35562768,15.3879229 5.35628937,15.2983532 L5.35628937,6.69284619 C5.35725687,6.60215385 5.30597443,6.51942679 5.22553719,6.48194358 C5.14509994,6.44446038 5.05069277,6.45929709 4.98485757,6.51976798 L4.98485757,6.51830122 Z M23.6586097,19.2498167 L1.33924745,19.2498167 C0.599601506,19.2498167 0,19.8654662 0,20.6249083 C0,21.3843505 0.599601506,22 1.33924745,22 L23.6586097,22 C24.3982557,22 24.9978572,21.3843505 24.9978572,20.6249083 C24.9978572,19.8654662 24.3982557,19.2498167 23.6586097,19.2498167 L23.6586097,19.2498167 Z" id="形状"></path>
        </g>
    </g>
</svg>