<?xml version="1.0" encoding="UTF-8"?>
<svg width="25px" height="22px" viewBox="0 0 25 22" version="1.1" xmlns="http://www.w3.org/2000/svg" xmlns:xlink="http://www.w3.org/1999/xlink">
    <!-- Generator: Sketch 55.1 (78136) - https://sketchapp.com -->
    <title>收起 (2)</title>
    <desc>Created with Sketch.</desc>
    <g id="页面1" stroke="none" stroke-width="1" fill="none" fill-rule="evenodd">
        <g id="收起-(2)" fill="#FFFFFF" fill-rule="nonzero">
            <path d="M23.6600382,0 L1.33924745,0 C0.599601506,0 0,0.615649512 0,1.37509167 C0,2.13453383 0.599601506,2.75018335 1.33924745,2.75018335 L23.6586097,2.75018335 C24.3812352,2.7259476 24.954826,2.11745358 24.954826,1.37509167 C24.954826,0.632729763 24.3812352,0.0242357452 23.6586097,0 L23.6600382,0 Z M23.6600382,9.62637509 L10.2675638,9.62637509 C9.52791783,9.62637509 8.92831632,10.2420246 8.92831632,11.0014668 C8.92831632,11.7609089 9.52791783,12.3765584 10.2675638,12.3765584 L23.6600382,12.3765584 C24.1387605,12.3765584 24.581118,12.1143277 24.8204792,11.6886459 C25.0598403,11.2629642 25.0598403,10.7385026 24.8204792,10.3128208 C24.581118,9.88713908 24.1387605,9.62490833 23.6600382,9.62490833 L23.6600382,9.62637509 Z M0.596752703,6.51830122 L5.20376392,10.6560437 C5.30068045,10.7429477 5.35628937,10.8686174 5.35628937,11.0007334 C5.35628937,11.1328494 5.30068045,11.258519 5.20376392,11.345423 L0.595324172,15.4684979 C0.52980754,15.527641 0.436705338,15.542094 0.357088596,15.5054812 C0.277471853,15.4688683 0.225982592,15.3879229 0.225320905,15.2983532 L0.225320905,6.69284619 C0.224353403,6.60215385 0.275635837,6.51942679 0.356073084,6.48194358 C0.436510332,6.44446038 0.5309175,6.45929709 0.596752703,6.51976798 L0.596752703,6.51830122 Z M23.6586097,19.2498167 L1.33924745,19.2498167 C0.599601506,19.2498167 0,19.8654662 0,20.6249083 C0,21.3843505 0.599601506,22 1.33924745,22 L23.6586097,22 C24.3982557,22 24.9978572,21.3843505 24.9978572,20.6249083 C24.9978572,19.8654662 24.3982557,19.2498167 23.6586097,19.2498167 L23.6586097,19.2498167 Z" id="形状"></path>
        </g>
    </g>
</svg>