<?xml version="1.0" encoding="UTF-8"?>
<svg width="19px" height="28px" viewBox="0 0 19 28" version="1.1" xmlns="http://www.w3.org/2000/svg" xmlns:xlink="http://www.w3.org/1999/xlink">
    <!-- Generator: Sketch 55.1 (78136) - https://sketchapp.com -->
    <title>话筒</title>
    <desc>Created with Sketch.</desc>
    <g id="页面1" stroke="none" stroke-width="1" fill="none" fill-rule="evenodd">
        <g id="话筒" fill="#FFFFFF" fill-rule="nonzero">
            <path d="M9.4850063,18.9692929 C6.65842045,18.9692929 4.3338952,16.6447677 4.3338952,13.8181818 L4.3338952,5.15111111 C4.3338952,2.32375757 6.65842045,0 9.4850063,0 C12.3115921,0 14.6361174,2.32375757 14.6361174,5.15111111 L14.6361174,13.8181818 C14.6361174,16.6447677 12.3115922,18.9692929 9.4850063,18.9692929 Z M9.4850063,1.63284309 C8.55147541,1.63121391 7.6557203,2.00138661 6.99568529,2.66156566 C6.33565029,3.32174472 5.96567307,4.21758059 5.96750455,5.15111111 L5.96750455,13.8181818 C5.96587741,14.7515794 6.33594483,15.6472177 6.99595762,16.3072305 C7.65597042,16.9672433 8.55160869,17.3373107 9.4850063,17.3356821 C10.4184039,17.3373107 11.3140422,16.9672433 11.974055,16.3072305 C12.6340678,15.6472177 13.0041352,14.7515794 13.0025081,13.8181818 L13.0025081,5.15111111 C13.0043396,4.21758059 12.6343623,3.32174472 11.9743273,2.66156566 C11.3142923,2.0013866 10.4185372,1.6312139 9.4850063,1.63284309 Z" id="形状"></path>
            <path d="M6.59547097,27.6363636 C6.15635987,27.6363636 5.77943058,27.260202 5.77943055,26.8195556 C5.77943055,26.3804444 6.15559217,26.0035152 6.59547097,26.0035152 L8.66819824,26.0035152 L8.66819824,23.2398788 C6.32613517,23.0522814 4.14541121,21.9729109 2.57591539,20.2244444 C0.879349741,18.5286465 0.000359839489,16.2056566 0.000359839489,13.8181818 C0.000359839489,13.378303 0.377289126,13.0013737 0.817167923,13.0013737 C1.25704672,13.0013737 1.63397601,13.378303 1.63397601,13.8181818 C1.63397601,18.1517172 5.15147094,21.6692121 9.4850063,21.6692121 C13.8185417,21.6692121 17.3360366,18.1517172 17.3360366,13.8181818 C17.3360366,13.378303 17.7129659,13.0013737 18.1528447,13.0013737 C18.5927235,13.0013737 18.9696528,13.378303 18.9696528,13.8181818 C18.9696528,16.2056566 18.0898952,18.5286465 16.3940972,20.2873939 C14.7612487,22.0461414 12.6248043,23.0510303 10.3018144,23.3028283 L10.3018144,26.0035152 L12.3745417,26.0035152 C12.8136528,26.0035152 13.190582,26.3796768 13.1905821,26.8195556 C13.1905821,27.2594343 12.8144205,27.6363636 12.3753093,27.6363636 L6.59470328,27.6363636 L6.59547097,27.6363636 Z" id="路径"></path>
        </g>
    </g>
</svg>