<?xml version="1.0" encoding="UTF-8"?>
<svg width="90px" height="21px" viewBox="0 0 90 21" version="1.1" xmlns="http://www.w3.org/2000/svg" xmlns:xlink="http://www.w3.org/1999/xlink">
    <!-- Generator: Sketch 55.1 (78136) - https://sketchapp.com -->
    <title>netless_black</title>
    <desc>Created with Sketch.</desc>
    <g id="页面1" stroke="none" stroke-width="1" fill="none" fill-rule="evenodd">
        <g id="netless_black" transform="translate(1.000000, 1.000000)" fill="#000000" fill-rule="nonzero" stroke="#FFFFFF">
            <path d="M5.08401369,8.86711221 L5.08401369,18.318481 L4.7276877,18.4253788 C4.51731648,18.4884902 4.20790703,18.5465045 3.79185124,18.6032291 C3.39042906,18.6605752 2.97134975,18.6891488 2.53468993,18.6891488 C2.11282349,18.6891488 1.72602322,18.6601388 1.36920576,18.6006462 C0.988913238,18.5335357 0.655081784,18.3953986 0.374119565,18.1846769 C0.0908763247,17.9722444 -0.1315585,17.6912741 -0.306375872,17.3130838 C-0.437634784,16.96306 -0.5,16.5368977 -0.5,16.0319658 L-0.5,7.94252991 C-0.5,7.36688766 -0.377751659,6.8778943 -0.111871284,6.46773772 C0.138584759,6.11292498 0.467705105,5.79408965 0.871144216,5.511687 C1.5302804,5.04641439 2.34376378,4.67316907 3.31291234,4.38813245 C4.2945935,4.1049552 5.37469453,3.96407246 6.5524431,3.96407246 C8.69056508,3.96407246 10.365326,4.4453256 11.5574421,5.4225016 C12.7764148,6.40167636 13.3891679,7.77785955 13.3891679,9.50648752 L13.3891679,18.3184809 L13.0328419,18.4253788 C12.8224708,18.4884902 12.5130613,18.5465045 12.0970055,18.6032291 C11.6955832,18.6605752 11.2765039,18.6891488 10.8398441,18.6891488 C10.4179777,18.6891488 10.0311774,18.6601388 9.67435998,18.6006462 C9.29406747,18.5335357 8.96023601,18.3953986 8.67927378,18.1846769 C8.39603054,17.9722444 8.17359572,17.6912741 7.99877835,17.3130838 C7.86751944,16.96306 7.80515422,16.5368977 7.80515422,16.0319658 L7.80515422,9.66827624 C7.80515422,9.25404195 7.70230328,8.99691458 7.48897726,8.82977978 C7.2825989,8.64768124 6.97775004,8.55038905 6.5524431,8.55038905 C6.2341115,8.55038905 5.91528891,8.59024188 5.6010983,8.66875026 C5.40926064,8.71923385 5.23719627,8.78546511 5.08401369,8.86711221 Z" id="path66299"></path>
            <path d="M20.5109294,13.5904292 C20.6766919,13.7931564 20.8935906,13.961143 21.1641144,14.0964933 C21.7058003,14.3514043 22.334358,14.4803392 23.0544692,14.4803392 C23.7472918,14.4803392 24.3944286,14.3962954 24.9882726,14.2314231 C25.6150738,14.0450768 26.115783,13.836448 26.4886715,13.6094723 L26.7521142,13.4491159 L27.0136446,13.6125725 C27.3691033,13.8347344 27.6662221,14.1428576 27.9033351,14.5308606 C28.1483936,14.9318654 28.2733068,15.3633838 28.2733068,15.8162475 C28.2733068,16.814306 27.7899395,17.585392 26.8753635,18.064446 C26.2485542,18.3974385 25.5471527,18.6214973 24.7734915,18.7375465 C24.0306998,18.8489653 23.3319279,18.904867 22.6769622,18.904867 C21.5667908,18.904867 20.5276783,18.7537234 19.5498843,18.4468169 C18.590484,18.1206208 17.7427155,17.6389341 17.0051271,16.9983388 C16.2851578,16.3562041 15.7129889,15.5512885 15.286021,14.5807301 C14.8812368,13.6169582 14.6807516,12.499969 14.6807516,11.2322339 C14.6807516,9.97934921 14.8822924,8.89486786 15.2924797,7.97688565 C15.7171269,7.05038257 16.2724478,6.29046972 16.9524873,5.70766554 C17.6347793,5.10334984 18.41624,4.66377815 19.2830739,4.3942026 C20.1428818,4.10759997 21.0231839,3.96407246 21.9219482,3.96407246 C22.9322069,3.96407246 23.8539584,4.11769771 24.6814392,4.42561233 C25.5313588,4.73467402 26.2614516,5.16299509 26.862179,5.70567131 C27.4929629,6.25760725 27.9774701,6.92009667 28.3081809,7.67907127 C28.6626328,8.4470504 28.8395674,9.28257489 28.8395674,10.1806072 C28.8395674,10.9205095 28.6205274,11.5199874 28.1711087,11.9457525 C27.7488087,12.345826 27.1775904,12.5937132 26.472175,12.6974491 L20.5109294,13.5904292 Z M20.0278453,9.57347246 L23.3410029,9.0309671 C23.2703223,8.92110134 23.1801652,8.80789091 23.0694765,8.69137641 C22.8311056,8.44045967 22.4593953,8.30770598 21.9219482,8.30770598 C21.5573006,8.30770598 21.2486005,8.36650599 21.0023256,8.47583362 C20.760058,8.58984191 20.5662856,8.7351712 20.4029902,8.92754703 C20.2490869,9.09544165 20.1298163,9.2918873 20.0503534,9.5028128 C20.0425289,9.52628618 20.0350263,9.54983901 20.0278453,9.57347246 Z" id="path66301"></path>
            <path d="M35.6300608,5.39320614 L38.9592645,5.39320614 L39.1013957,5.65378016 C39.2279839,5.88585862 39.3395092,6.16974117 39.4272251,6.47265836 C39.5570445,6.81884339 39.6208492,7.20167169 39.6208492,7.61895247 C39.6208492,8.36912635 39.4376719,8.95300412 39.042966,9.34770993 C38.673715,9.71696109 38.1771577,9.89862838 37.5838564,9.89862838 L35.6300608,9.89862838 L35.6300608,13.4703111 C35.6300608,13.7848671 35.706069,13.9606359 35.8331231,14.0482231 C36.0480931,14.1873214 36.3783726,14.2646209 36.8288424,14.2646209 C37.0773692,14.2646209 37.3353229,14.2479787 37.5726065,14.2192552 C37.8390834,14.1692908 38.0690181,14.1118071 38.2616509,14.0475962 L38.5885448,13.9386315 L38.8067435,14.205319 C38.9987592,14.4400049 39.1577943,14.7050634 39.2644722,14.9590077 C39.4323999,15.2708736 39.5129901,15.6392857 39.5129901,16.0589306 C39.5129901,16.8906186 39.1862066,17.5892592 38.556407,18.1103757 C37.9424674,18.6366096 36.9370813,18.8779023 35.5345326,18.8779023 C33.8442705,18.8779023 32.5095169,18.4853277 31.5432624,17.6800805 C30.5728582,16.8542047 30.0999767,15.5462345 30.0999767,13.7938886 L30.0999767,1.87106203 L30.468418,1.77057805 C30.6882517,1.71062343 30.9844941,1.65328618 31.342329,1.60000197 C31.7512625,1.52210987 32.1780379,1.48331211 32.6223357,1.48331211 C33.5039348,1.48331211 34.2090319,1.64921731 34.7131891,1.98600223 C35.3425667,2.36362878 35.6300608,3.11111361 35.6300608,4.16745981 L35.6300608,5.39320614 Z" id="path66303"></path>
            <path d="M46.0968436,18.4384007 C45.8903345,18.4759477 45.5873102,18.5218605 45.2111192,18.5724589 C44.8025472,18.6502821 44.3847307,18.6891488 43.9580772,18.6891488 C43.5362108,18.6891488 43.1494105,18.6601388 42.7925931,18.6006462 C42.4123006,18.5335357 42.0784691,18.3953986 41.7975069,18.1846769 C41.5142637,17.9722444 41.2918288,17.6912741 41.1170114,17.3130837 C40.9857525,16.9630599 40.9233873,16.5368976 40.9233873,16.0319658 L40.9233873,-0.0248984853 L41.3339446,-0.0995452529 C41.5391027,-0.136846727 41.832315,-0.182661139 42.1968178,-0.234369181 C42.6216935,-0.311619319 43.0471081,-0.350293372 43.4727111,-0.350293372 C43.8958002,-0.350293372 44.2750142,-0.321123064 44.6065373,-0.262595973 C45.0055394,-0.196095619 45.3499178,-0.0583442454 45.6332815,0.154178485 C45.9281178,0.375305827 46.1465343,0.678661996 46.271739,1.01685531 C46.432276,1.36086302 46.507401,1.79014869 46.507401,2.30688954 L46.507401,18.363754 L46.0968436,18.4384007 Z" id="path66305"></path>
            <path d="M53.6375928,13.5904292 C53.8033553,13.7931564 54.020254,13.961143 54.2907777,14.0964933 C54.8324636,14.3514043 55.4610213,14.4803392 56.1811325,14.4803392 C56.8739551,14.4803392 57.5210919,14.3962954 58.1149359,14.2314231 C58.7417371,14.0450768 59.2424463,13.836448 59.6153348,13.6094723 L59.8787774,13.4491159 L60.1403078,13.6125725 C60.4957667,13.8347343 60.7928855,14.1428576 61.0299984,14.5308606 C61.275057,14.9318655 61.3999702,15.3633838 61.3999702,15.8162475 C61.3999702,16.814306 60.9166029,17.585392 60.0020268,18.064446 C59.3752177,18.3974385 58.6738161,18.6214973 57.9001548,18.7375465 C57.1573631,18.8489653 56.4585913,18.904867 55.8036255,18.904867 C54.6934541,18.904867 53.6543417,18.7537234 52.6765476,18.4468169 C51.7171473,18.1206208 50.8693788,17.6389341 50.1317904,16.9983388 C49.4118212,16.3562042 48.8396524,15.5512887 48.4126843,14.5807301 C48.0079001,13.6169582 47.8074149,12.499969 47.8074149,11.2322339 C47.8074149,9.97934921 48.0089557,8.89486786 48.419143,7.97688561 C48.8437904,7.05038236 49.3991113,6.29046959 50.0791507,5.70766556 C50.7614425,5.10334991 51.5429033,4.66377817 52.4097373,4.3942026 C53.2695452,4.10759998 54.1498473,3.96407246 55.0486115,3.96407246 C56.0588703,3.96407246 56.9806218,4.11769772 57.8081025,4.42561233 C58.6580221,4.73467398 59.3881148,5.16299503 59.9888423,5.70567129 C60.6196262,6.25760714 61.1041333,6.92009654 61.4348442,7.67907122 C61.7892961,8.44705023 61.9662307,9.2825747 61.9662307,10.1806072 C61.9662307,10.9205095 61.7471907,11.5199874 61.297772,11.9457524 C60.8754722,12.345826 60.3042538,12.5937132 59.5988384,12.6974491 L53.6375928,13.5904292 Z M53.1545086,9.57347247 L56.4676663,9.03096711 C56.3969857,8.92110136 56.3068286,8.80789095 56.1961399,8.69137646 C55.9577689,8.44045967 55.5860586,8.30770598 55.0486115,8.30770598 C54.6839639,8.30770598 54.3752638,8.36650599 54.128989,8.47583362 C53.8867213,8.58984195 53.6929489,8.73517125 53.5296535,8.92754713 C53.3757502,9.09544167 53.2564796,9.29188728 53.1770168,9.50281265 C53.1691923,9.52628609 53.1616896,9.54983897 53.1545086,9.57347247 Z" id="path66307"></path>
            <path d="M75.2282692,14.0635364 C75.2282692,15.5838535 74.6446702,16.8022443 73.4923956,17.6715041 C72.3689802,18.518993 70.7560286,18.9318318 68.6611922,18.9318318 C67.8795347,18.9318318 67.1510796,18.8757968 66.4757394,18.7632401 C65.7869038,18.6484342 65.1872304,18.4743355 64.6554457,18.2282854 C64.14551,17.9631187 63.7304238,17.6310498 63.4050028,17.2184033 C63.0882872,16.7885751 62.9300237,16.2798709 62.9300237,15.7083884 C62.9300237,15.1883808 63.0427509,14.7374719 63.2687044,14.3762868 C63.4793049,14.0182661 63.7358563,13.7189561 64.0379156,13.4816238 L64.2983582,13.2769902 L64.5883651,13.4369941 C65.0842956,13.7106109 65.6522704,13.9601756 66.277068,14.1799704 C66.9086766,14.3794257 67.640299,14.4803392 68.4724387,14.4803392 C68.9514225,14.4803392 69.2939904,14.4147411 69.5058399,14.2957621 C69.658601,14.2148886 69.6981851,14.1590052 69.6981851,14.0905012 C69.6981851,14.0075203 69.6750986,13.9651951 69.5972575,13.913301 C69.4508177,13.8156745 69.1496292,13.7177883 68.6979581,13.637024 L67.8911849,13.4756644 C66.2512825,13.1552237 65.0074747,12.6481328 64.151135,11.9309908 C63.2818506,11.1651926 62.8491293,10.0833894 62.8491293,8.72450872 C62.8491293,7.97904073 63.0122554,7.29595016 63.3393894,6.68257389 C63.6649651,6.07211947 64.1236235,5.5624991 64.7101148,5.15802231 C65.2796235,4.76525771 65.9509397,4.46365189 66.7249872,4.2507989 C67.505915,4.0412817 68.358248,3.93710767 69.2813823,3.93710767 C69.9765014,3.93710767 70.627429,3.99371006 71.2168553,4.10453864 C71.8538255,4.20104928 72.4106636,4.35735471 72.8872728,4.57580056 C73.3892149,4.80585738 73.7952483,5.11572494 74.0895724,5.49445818 C74.41677,5.89176962 74.5811143,6.37306349 74.5811143,6.91786802 C74.5811143,7.40945297 74.4821952,7.84909314 74.2856448,8.22006628 C74.1119248,8.56750635 73.8811997,8.86415289 73.5951418,9.10620185 L73.3165934,9.34189672 L73.0071712,9.14850787 C72.9057939,9.08514701 72.7262972,9.01035674 72.4494541,8.92302544 C72.1862498,8.82432384 71.8958503,8.74135255 71.5540017,8.66875026 C71.2300577,8.58350186 70.8972328,8.51523008 70.5516403,8.46337618 C70.2348111,8.41335051 69.9460592,8.38860034 69.6858541,8.38860034 C69.1565414,8.38860034 68.7633499,8.45027743 68.4918731,8.57032096 C68.3498732,8.62554319 68.3252838,8.65696291 68.3252838,8.72450872 C68.3252838,8.75378841 68.3316521,8.76525137 68.3816628,8.80025887 C68.4920885,8.87755681 68.7819045,8.97670439 69.229724,9.0726966 L70.0671901,9.26180444 C71.8743402,9.67594298 73.1752824,10.2594538 73.9625952,11.0273074 C74.8043614,11.8074809 75.2282692,12.8310631 75.2282692,14.0635364 Z" id="path66309"></path>
            <path d="M88.5,14.0635364 C88.5,15.5838536 87.9164011,16.8022444 86.7641265,17.6715041 C85.640711,18.518993 84.0277594,18.9318318 81.9329231,18.9318318 C81.1512655,18.9318318 80.4228104,18.8757968 79.7474702,18.7632401 C79.0586346,18.6484342 78.4589612,18.4743355 77.9271765,18.2282854 C77.4172409,17.9631188 77.0021548,17.6310499 76.6767335,17.2184033 C76.360018,16.7885749 76.2017545,16.2798708 76.2017545,15.7083884 C76.2017545,15.1883808 76.3144817,14.7374719 76.5404352,14.3762868 C76.7510357,14.0182661 77.0075871,13.7189561 77.3096464,13.4816238 L77.570089,13.2769902 L77.8600959,13.4369941 C78.3560264,13.7106109 78.9240012,13.9601756 79.5487988,14.1799704 C80.1804074,14.3794257 80.9120299,14.4803392 81.7441695,14.4803392 C82.2231533,14.4803392 82.5657212,14.4147411 82.7775707,14.2957621 C82.9303318,14.2148886 82.9699159,14.1590052 82.9699159,14.0905012 C82.9699159,14.0075203 82.9468294,13.9651951 82.8689883,13.913301 C82.7225485,13.8156745 82.42136,13.7177882 81.9696889,13.637024 L81.1629157,13.4756644 C79.5230133,13.1552237 78.2792054,12.6481328 77.4228659,11.9309908 C76.5535814,11.1651926 76.1208601,10.0833894 76.1208601,8.72450872 C76.1208601,7.97904073 76.2839862,7.29595016 76.6111202,6.68257389 C76.9366959,6.07211947 77.3953543,5.5624991 77.9818456,5.15802231 C78.5513543,4.76525769 79.2226705,4.46365187 79.9967181,4.2507989 C80.7776459,4.0412817 81.6299788,3.93710767 82.5531131,3.93710767 C83.2482322,3.93710767 83.8991598,3.99371006 84.4885861,4.10453864 C85.1255563,4.20104928 85.6823944,4.35735471 86.1590036,4.57580056 C86.6609458,4.80585742 87.0669792,5.11572503 87.3613032,5.49445811 C87.6885009,5.8917695 87.8528451,6.37306337 87.8528451,6.91786802 C87.8528451,7.40945315 87.7539261,7.84909331 87.5573757,8.22006616 C87.3836558,8.56750617 87.1529306,8.86415279 86.8668726,9.10620185 L86.5883242,9.34189672 L86.278902,9.14850787 C86.1775247,9.08514702 85.998028,9.01035674 85.721185,8.92302544 C85.4579808,8.82432388 85.1675812,8.74135257 84.8257324,8.66875025 C84.5017887,8.5835019 84.1689638,8.51523011 83.8233712,8.46337618 C83.5065419,8.41335051 83.21779,8.38860034 82.9575849,8.38860034 C82.4282722,8.38860034 82.0350808,8.45027742 81.7636039,8.57032096 C81.621604,8.62554316 81.5970147,8.65696284 81.5970147,8.72450872 C81.5970147,8.7537885 81.603383,8.76525142 81.6533936,8.80025887 C81.7638193,8.87755681 82.0536353,8.97670439 82.5014548,9.0726966 L83.3389209,9.26180444 C85.1460709,9.67594297 86.4470132,10.2594538 87.2343261,11.0273074 C88.0760922,11.8074809 88.5,12.8310631 88.5,14.0635364 Z" id="path66311"></path>
        </g>
    </g>
</svg>