<?xml version="1.0" encoding="UTF-8"?>
<svg width="28px" height="32px" viewBox="0 0 28 32" version="1.1" xmlns="http://www.w3.org/2000/svg" xmlns:xlink="http://www.w3.org/1999/xlink">
    <!-- Generator: Sketch 55.1 (78136) - https://sketchapp.com -->
    <title>编组 17</title>
    <desc>Created with Sketch.</desc>
    <g id="页面1" stroke="none" stroke-width="1" fill="none" fill-rule="evenodd">
        <g id="编组-17">
            <circle id="椭圆形" fill="#ECF2F2" cx="14" cy="23" r="6"></circle>
            <g id="pdf-(2)" fill="#5B908E" fill-rule="nonzero">
                <path d="M23.6206302,0 L23.6206302,6.78620691 L27.615874,6.78620691 L23.6206302,0 Z M11.6348989,8.44137931 C12.0610583,8.44137931 12.3806777,8.38620691 12.5937574,8.33103447 C12.8068371,8.27586206 12.9666468,8.16551722 13.1264566,8 C13.2862664,7.83448275 13.4460761,7.55862069 13.5526159,7.22758622 C13.6591558,6.89655175 13.7124257,6.45517244 13.7124257,5.95862069 C13.7124257,5.29655172 13.6058859,4.8 13.3928062,4.41379309 C13.1797265,4.08275863 12.9666468,3.86206897 12.6470274,3.69655172 C12.4339477,3.58620691 12.0610583,3.58620691 11.581629,3.58620691 L10.3564209,3.58620691 L10.3564209,8.38620691 L11.6348989,8.38620691 L11.6348989,8.44137931 Z M6.73406659,4.02758622 C6.62752677,3.86206897 6.46771701,3.75172416 6.25463734,3.69655172 C6.14809753,3.69655172 5.98828777,3.64137931 5.50885849,3.64137931 L4.01730084,3.64137931 L4.01730084,5.73793103 L5.50885849,5.73793103 C6.04155765,5.73793103 6.36117716,5.62758622 6.57425683,5.46206897 C6.84060641,5.24137931 6.89387635,4.96551725 6.89387635,4.63448275 C6.89387635,4.35862069 6.84060644,4.19310344 6.73406659,4.02758622 L6.73406659,4.02758622 Z" id="形状"></path>
                <path d="M27.615874,9.26896553 L27.615874,7.72413794 L22.5552319,7.72413794 L22.5552319,0 L0.0220570603,0 L0.0220570603,32 L27.6691439,32 L27.615874,9.26896553 Z M16.2161118,2.48275863 L20.9038644,2.48275863 L20.9038644,3.58620691 L17.3880499,3.58620691 L17.3880499,5.35172413 L20.4244352,5.35172413 L20.4244352,6.45517241 L17.3880499,6.45517241 L17.3880499,9.48965519 L16.2161118,9.48965519 L16.2161118,2.48275863 L16.2161118,2.48275863 Z M9.23775267,2.48275862 L11.6348989,2.48275862 C12.1675981,2.48275862 12.5404875,2.53793103 12.8068371,2.59310344 C13.1797265,2.70344825 13.5526159,2.8689655 13.8189655,3.08965519 C14.1918549,3.42068966 14.4582045,3.80689656 14.6180143,4.30344828 C14.777824,4.8 14.8843639,5.35172416 14.8843639,5.95862069 C14.8843639,6.45517241 14.8310939,6.95172413 14.7245541,7.33793103 C14.6180143,7.72413794 14.4582045,8.11034481 14.2451249,8.38620691 C14.0320452,8.662069 13.8189655,8.88275863 13.6058858,9.04827588 C13.3928062,9.21379313 13.0731867,9.32413794 12.8068371,9.43448275 C12.4872176,9.48965516 12.1143282,9.54482759 11.7414388,9.54482759 L9.23775267,9.54482759 L9.23775267,2.48275862 L9.23775267,2.48275862 Z M2.84536266,2.48275863 L5.45558858,2.48275863 C5.88174792,2.48275863 6.25463734,2.48275863 6.46771701,2.53793103 C6.7873365,2.59310344 7.10695602,2.70344828 7.32003569,2.86896553 C7.53311535,3.03448278 7.74619502,3.25517244 7.90600475,3.58620691 C8.06581451,3.86206897 8.11908442,4.19310347 8.11908442,4.57931034 C8.11908442,5.18620691 7.90600475,5.73793103 7.53311535,6.12413794 C7.16022593,6.56551725 6.46771701,6.78620691 5.50885849,6.78620691 L4.01730084,6.78620691 L4.01730084,9.48965519 L2.84536266,9.48965519 L2.84536266,2.48275863 Z M27.0831748,31.4482759 L0.554756246,31.4482759 L0.554756246,12.137931 L27.0831748,12.137931 L27.0831748,31.4482759 Z" id="形状"></path>
                <path d="M18.6665279,25.2137931 C17.6543995,25.1586207 16.695541,24.7172414 15.8964923,24.0551724 C14.3516647,24.3862069 12.9133769,24.8827586 11.4750892,25.5448276 C10.303151,27.6413793 9.23775267,28.7448276 8.33216409,28.7448276 C8.11908442,28.7448276 7.90600475,28.6896552 7.74619499,28.5793103 C7.37330556,28.4137931 7.10695602,27.9724138 7.10695602,27.5310345 C7.10695602,27.2 7.16022593,26.2068965 10.7293103,24.662069 C11.5283591,23.1172414 12.1675981,21.5172414 12.7002973,19.862069 C12.2741379,18.9241379 11.2620095,16.662069 11.9545184,15.5034483 C12.1675981,15.062069 12.6470274,14.8413793 13.1264566,14.8965517 C13.499346,14.8965517 13.8722354,15.062069 14.0853151,15.3931034 C14.5647443,16.1103448 14.5114744,17.5448276 13.9255053,19.6965517 C14.5114744,20.8551724 15.3105232,21.9034483 16.2161118,22.7862069 C17.0151605,22.6206897 17.7609394,22.5103448 18.5599881,22.5103448 C20.3178953,22.5655172 20.5842449,23.3931034 20.530975,23.8896552 C20.530975,25.2137931 19.3057669,25.2137931 18.6665279,25.2137931 L18.6665279,25.2137931 Z M8.22562427,27.5862069 L8.33216409,27.5310345 C8.86486324,27.3103448 9.23775267,26.9793103 9.55737219,26.4275862 C9.02467303,26.7034483 8.54524375,27.0896552 8.22562427,27.5862069 Z M13.1797265,16 L13.0731867,16 C13.0199168,16 12.9666469,16 12.9133769,16.0551724 C12.7535672,16.7172414 12.860107,17.3793103 13.1264566,18.0413793 C13.3395363,17.3793103 13.3928062,16.662069 13.1797265,16 Z M13.4460761,21.6275862 L13.3928062,21.6827586 L13.3395363,21.6275862 C13.0199168,22.5103448 12.6470274,23.3931035 12.220868,24.2758621 L12.2741379,24.2206897 L12.2741379,24.2758621 C13.1264566,23.9448276 13.9255053,23.7241379 14.8310939,23.5034483 L14.777824,23.4482759 L14.8843639,23.4482759 C14.3516647,22.9517242 13.8722354,22.2896552 13.4460761,21.6275862 L13.4460761,21.6275862 Z M18.5067182,23.6689655 C18.1870987,23.6689655 17.8674792,23.6689655 17.5478597,23.7241379 C17.9207491,23.8896552 18.2936385,24 18.6665279,24.0551724 C18.9328775,24.1103448 19.1992271,24.0551724 19.4123068,24 C19.4123068,23.8344827 19.252497,23.6689655 18.5067182,23.6689655 Z" id="形状"></path>
            </g>
        </g>
    </g>
</svg>