<?xml version="1.0" encoding="UTF-8"?>
<svg width="31px" height="31px" viewBox="0 0 31 31" version="1.1" xmlns="http://www.w3.org/2000/svg" xmlns:xlink="http://www.w3.org/1999/xlink">
    <!-- Generator: Sketch 55.1 (78136) - https://sketchapp.com -->
    <title>形状</title>
    <desc>Created with Sketch.</desc>
    <g id="页面1" stroke="none" stroke-width="1" fill="none" fill-rule="evenodd">
        <g id="编辑-(1)" fill="#4992FD" fill-rule="nonzero">
            <path d="M15.36,0 C6.88,0 1.42108547e-14,6.88 1.42108547e-14,15.36 C1.42108547e-14,23.84 6.88,30.72 15.36,30.72 C23.84,30.72 30.72,23.84 30.72,15.36 C30.72,6.88 23.84,0 15.36,0 Z M10.128,24.416 L6.304,24.416 L6.304,20.592 L17.376,9.408 L21.2,13.232 L10.128,24.416 L10.128,24.416 Z M24.112,10.32 L22.416,12.24 L18.592,8.416 L20.4,6.608 C20.8,6.208 21.408,6.208 21.808,6.608 L24.112,8.912 C24.512,9.312 24.512,9.92 24.112,10.32 L24.112,10.32 Z" id="形状"></path>
        </g>
    </g>
</svg>