<?xml version="1.0" encoding="UTF-8"?>
<svg width="31px" height="31px" viewBox="0 0 31 31" version="1.1" xmlns="http://www.w3.org/2000/svg" xmlns:xlink="http://www.w3.org/1999/xlink">
    <!-- Generator: Sketch 55.1 (78136) - https://sketchapp.com -->
    <title>形状</title>
    <desc>Created with Sketch.</desc>
    <g id="页面1" stroke="none" stroke-width="1" fill="none" fill-rule="evenodd">
        <g id="编辑-(1)" transform="translate(-15.000000, -108.000000)" fill="#9B9B9B" fill-rule="nonzero">
            <path d="M30.36,108 C21.88,108 15,114.88 15,123.36 C15,131.84 21.88,138.72 30.36,138.72 C38.84,138.72 45.72,131.84 45.72,123.36 C45.72,114.88 38.84,108 30.36,108 Z M25.128,132.416 L21.304,132.416 L21.304,128.592 L32.376,117.408 L36.2,121.232 L25.128,132.416 L25.128,132.416 Z M39.112,118.32 L37.416,120.24 L33.592,116.416 L35.4,114.608 C35.8,114.208 36.408,114.208 36.808,114.608 L39.112,116.912 C39.512,117.312 39.512,117.92 39.112,118.32 L39.112,118.32 Z" id="形状"></path>
        </g>
    </g>
</svg>