<?xml version="1.0" encoding="UTF-8"?>
<svg width="32px" height="32px" viewBox="0 0 32 32" version="1.1" xmlns="http://www.w3.org/2000/svg" xmlns:xlink="http://www.w3.org/1999/xlink">
    <!-- Generator: Sketch 55.1 (78136) - https://sketchapp.com -->
    <title>图钉已标记</title>
    <desc>Created with Sketch.</desc>
    <g id="页面1" stroke="none" stroke-width="1" fill="none" fill-rule="evenodd">
        <g id="图钉已标记" fill-rule="nonzero">
            <path d="M16,32 C24.8,32 32,24.8 32,16 C32,7.2 24.8,0 16,0 C7.2,0 0,7.2 0,16 C0,24.8 7.2,32 16,32 Z" id="路径" fill="#FDAC00"></path>
            <path d="M8.2,22.8 C8.6,22.4 10.8,20 12,18.4 L13.6,20 C12,21.4 9.6,23.4 9.2,23.8 C8.6,24.4 7.8,24.8 7,25 C7.4,24.2 7.6,23.4 8.2,22.8 Z M24.8,11.8 C25.2,12.2 25.2,13 24.6,13.4 C24,13.8 23.4,14 23,13.4 L22.6,13 L18,19.4 L19.4,20.8 C19.8,21.2 19.8,22 19.4,22.4 C19,22.8 18.2,22.8 17.8,22.6 L9.6,14.2 C9.2,13.8 9.2,13 9.6,12.6 C10,12.2 10.8,12.2 11.2,12.6 L12.6,14 L19,9.6 L18.6,9 C18,8.6 18.2,7.8 18.6,7.2 C19,6.8 19.8,6.8 20.2,7.4 L24.8,11.8 L24.8,11.8 Z" id="形状" fill="#FFFFFF"></path>
        </g>
    </g>
</svg>