<?xml version="1.0" encoding="UTF-8"?>
<svg width="24px" height="32px" viewBox="0 0 24 32" version="1.1" xmlns="http://www.w3.org/2000/svg" xmlns:xlink="http://www.w3.org/1999/xlink">
    <!-- Generator: Sketch 55.1 (78136) - https://sketchapp.com -->
    <title>编组</title>
    <desc>Created with Sketch.</desc>
    <g id="页面1" stroke="none" stroke-width="1" fill="none" fill-rule="evenodd">
        <g id="编组">
            <circle id="椭圆形" fill="#DDE8E7" cx="12" cy="11" r="8"></circle>
            <g id="点击" fill="#000000" fill-rule="nonzero">
                <path d="M9.05595212,30.1603404 L9.04233509,30.1371915 C9.02395212,30.1051915 8.99195212,30.0643404 8.96403722,30.0282553 L8.95450531,30.0125957 C8.94020744,29.9921702 8.92318616,29.970383 8.91229256,29.9499574 L8.84216491,29.8485106 L8.83399469,29.8389787 L5.39910106,24.5514894 C4.99518876,23.9320387 4.84864554,23.1795392 4.99059044,22.4537872 C5.12076154,21.7323057 5.53126839,21.0916996 6.13237766,20.672 C6.9206311,20.1270406 7.94252493,20.0527448 8.80131384,20.4779574 L8.80131384,11.6405106 C8.79722872,10.1038298 9.95535637,8.85106384 11.3783351,8.85106384 C12.7992712,8.85106384 13.9594415,10.1038298 13.9594415,11.6425532 L13.9594415,14.4817021 C14.1685054,14.4122552 14.3873156,14.3766296 14.6076117,14.3761702 C15.2802925,14.3761702 15.9162074,14.7002553 16.3642074,15.2599149 C16.7133867,15.0276821 17.1220874,14.9009825 17.5413989,14.8949787 C18.024135,14.8974709 18.4919128,15.0627523 18.8690585,15.3640851 C19.1652287,15.5955745 19.4137393,15.8951489 19.5941649,16.2430638 C19.803867,16.1770213 20.0217394,16.1409362 20.2402926,16.1409362 C21.5645479,16.1409362 22.6409734,17.3937021 22.6409734,18.9324255 L22.6409734,26.3591489 C22.6409734,28.0020426 21.9145053,29.8178723 20.7904202,30.9875745 C20.1640372,31.6391489 19.4899947,32 18.8860798,32 L11.547867,32 C10.1725479,32 9.55501597,30.9800851 9.05595212,30.1603404 Z M19.0351862,30.6274042 C19.2578245,30.6274042 19.8113564,30.2556596 20.3539947,29.4325106 C20.9361223,28.544 21.2697394,27.4805106 21.2697394,26.5184681 L21.2697394,18.8793192 C21.2697394,18.2549787 20.8843777,17.7130213 20.4452287,17.7130213 C20.348138,17.7134515 20.252678,17.7380184 20.1674415,17.7845106 L20.1674415,20.4561702 L20.1647181,20.4561702 C20.1333989,20.9041702 19.7739096,21.2514042 19.3402074,21.2534468 C18.9051436,21.2534468 18.5436117,20.8994042 18.5143351,20.4568511 L18.5129734,20.4568511 L18.5129734,18.1378723 L18.4632713,17.4869787 C18.4203777,16.9068936 18.0493138,16.4337021 17.6346755,16.4337021 C17.4508458,16.4337021 17.26225,16.5358298 17.1131436,16.7060426 L17.1131436,19.5955745 C17.1117819,20.0680851 16.7413989,20.4500426 16.283867,20.4514043 C15.8276968,20.4493617 15.4579947,20.0674043 15.456633,19.5955745 L15.456633,17.0532766 L15.3946755,16.7564255 C15.2925479,16.2621277 14.9493989,15.890383 14.6001223,15.890383 C14.3618245,15.890383 14.1235266,16.059234 13.9621649,16.333617 L13.9356117,19.2 L13.9356117,20.2777872 C13.9356117,20.6958298 13.6040372,21.0396596 13.1996117,21.0396596 L13.0205479,21.0396596 C12.6140798,21.0396596 12.283867,20.6958298 12.283867,20.2777872 L12.283867,11.6745532 L12.2791011,11.3708936 C12.2791011,10.7274894 11.827016,10.2066383 11.2680372,10.2066383 C10.7097393,10.2066383 10.2576543,10.7288511 10.2576543,11.3708936 L10.2937394,19.7317447 C10.2957819,19.7569362 10.2964628,19.7828085 10.2964628,19.8086808 L10.2964628,23.1257872 C10.2896543,23.5526808 9.98122875,23.9101277 9.57203722,23.9645957 C9.15651679,24.0149392 8.76844953,23.7482524 8.66650531,23.3422979 L8.35535638,22.404766 C8.19260195,22.1491445 7.93364046,21.9699579 7.6370585,21.9077447 C7.34258948,21.847719 7.03639019,21.9112233 6.79007978,22.0834042 C6.27263297,22.4428936 6.13578191,23.1673192 6.48233509,23.7024681 L10.0234415,29.1445106 L10.035016,29.1594894 L10.0785904,29.2262128 L10.1330585,29.3099574 C10.1664202,29.3644255 10.2025053,29.4161702 10.2345053,29.4563404 L10.2576543,29.4862979 L10.2746755,29.5237447 C10.8261649,30.4347234 11.0385904,30.6314894 11.4573138,30.6314894 L19.0351862,30.6314894 L19.0351862,30.6260426 L19.0351862,30.6274042 L19.0351862,30.6274042 Z" id="形状"></path>
                <path d="M6.12965425,11.2340426 C6.12965425,11.7038298 5.74837766,12.0851064 5.27859044,12.0851064 L0.8530585,12.0851064 C0.383092613,12.0850163 0.00215773827,11.7040084 0.00215773827,11.2340425 C0.00215773827,10.7640767 0.383092613,10.3830688 0.8530585,10.3829787 L5.27859044,10.3829787 C5.74837766,10.3829787 6.12965425,10.7642553 6.12965425,11.2340426 L6.12965425,11.2340426 Z M23.1509308,11.2340426 C23.1509308,11.7038298 22.7696543,12.0851064 22.299867,12.0851064 L17.8743351,12.0851064 C17.4043692,12.0850163 17.0234343,11.7040084 17.0234343,11.2340425 C17.0234343,10.7640767 17.4043692,10.3830688 17.8743351,10.3829787 L22.299867,10.3829787 C22.7696542,10.3829787 23.1509308,10.7642553 23.1509308,11.2340426 L23.1509308,11.2340426 Z M20.4928883,3.05702128 C20.8249014,3.38932257 20.8249014,3.92778381 20.4928883,4.26008509 L16.7999521,7.95370213 C16.5849238,8.1687304 16.2715133,8.2527085 15.9777792,8.17400269 C15.6840451,8.09529688 15.4546127,7.86586444 15.3759069,7.57213035 C15.2972011,7.27839626 15.3811792,6.96498572 15.5962074,6.74995744 L19.2891436,3.05702128 C19.4487555,2.89736732 19.6652609,2.80767111 19.891016,2.80767111 C20.116771,2.80767111 20.3332764,2.89736732 20.4928883,3.05702128 Z M3.34088831,3.05702128 C3.50050019,2.89736733 3.7170056,2.80767113 3.94276064,2.80767113 C4.16851568,2.80767113 4.38502109,2.89736733 4.54463297,3.05702128 L8.23756916,6.74995744 C8.56997406,7.08236236 8.56997406,7.6212972 8.23756915,7.95370212 C7.90516423,8.28610703 7.36622939,8.28610703 7.03382447,7.95370212 L3.34088831,4.26008509 C3.0088752,3.92778381 3.0088752,3.38932257 3.34088831,3.05702128 Z M11.9168883,0 C12.3866755,0 12.7679521,0.381276594 12.7679521,0.851063844 L12.7679521,5.27659575 C12.7678621,5.74656164 12.3868542,6.12749651 11.9168883,6.12749651 C11.4469224,6.12749651 11.0659145,5.74656164 11.0658245,5.27659575 L11.0658245,0.851063844 C11.0658245,0.381276594 11.4471011,0 11.9168883,0 Z" id="形状"></path>
            </g>
        </g>
    </g>
</svg>