<?xml version="1.0" encoding="UTF-8"?>
<svg width="32px" height="32px" viewBox="0 0 32 32" version="1.1" xmlns="http://www.w3.org/2000/svg" xmlns:xlink="http://www.w3.org/1999/xlink">
    <!-- Generator: Sketch 55.1 (78136) - https://sketchapp.com -->
    <title>icon-举手 </title>
    <desc>Created with Sketch.</desc>
    <g id="页面1" stroke="none" stroke-width="1" fill="none" fill-rule="evenodd">
        <g id="icon-举手-" fill="#F5A623" fill-rule="nonzero">
            <path d="M16,0 C7.163444,0 0,7.163444 0,16 C0,24.838 7.162,32 16,32 C24.838,32 32,24.838 32,16 C32,7.163444 24.836556,0 16,0 Z M19.518,28.16 L11.62,28.16 L11.62,25.994 L19.518,25.994 L19.518,28.16 Z M20.368,18.604 C20.29,19.842 19.892,20.964 19.39,22.058 C19.296,22.258 19.212,22.462 19.118,22.664 C18.812,23.338 18.318,23.698 17.622,23.702 C16.946,23.708 16.272,23.704 15.594,23.704 C14.934,23.704 14.274,23.69 13.616,23.708 C13.0806773,23.7332402 12.5743459,23.463964 12.296,23.006 C11.6700266,22.0399688 11.1838757,20.9902329 10.852,19.888 C10.35,18.286 10.24,16.634 10.34,14.96 C10.3721232,14.3159831 10.7962006,13.7576939 11.408,13.554 C11.924,13.392 12.476,13.594 12.824,14.17 C13.064,14.568 13.208,15.038 13.388,15.478 C13.434,15.592 13.452,15.72 13.494,15.838 C13.742,16.524 14.424,16.822 15.018,16.464 C15.2091539,16.3304447 15.345545,16.1322513 15.402,15.906 C15.5075268,15.4796268 15.5559503,15.0411253 15.546,14.602 C15.496059,13.6503729 15.416019,12.7005643 15.306,11.754 C15.096,9.84 14.862,7.928 14.994,5.994 C15.028,5.54 15.112,5.09 15.242,4.654 C15.446,3.968 15.9,3.844 16.424,4.294 C17.012,4.8 17.402,5.482 17.76,6.184 C18.886,8.384 19.612,10.744 20.076,13.204 C20.414,14.986 20.48,16.788 20.368,18.604 L20.368,18.604 Z" id="形状"></path>
        </g>
    </g>
</svg>