<?xml version="1.0" encoding="UTF-8"?>
<svg width="611px" height="385px" viewBox="0 0 611 385" version="1.1" xmlns="http://www.w3.org/2000/svg" xmlns:xlink="http://www.w3.org/1999/xlink">
    <!-- Generator: Sketch 55.1 (78136) - https://sketchapp.com -->
    <title>replay_video_cover</title>
    <desc>Created with Sketch.</desc>
    <g id="页面1" stroke="none" stroke-width="1" fill="none" fill-rule="evenodd">
        <g id="replay_video_cover">
            <g id="编组-3" fill="#ECF2F2" fill-rule="nonzero">
                <g id="编组-2">
                    <rect id="矩形" x="0" y="0" width="611" height="384.618056"></rect>
                </g>
            </g>
            <g id="player_icon" transform="translate(204.000000, 62.000000)" fill-rule="nonzero">
                <g id="电脑支持支持支持出现在现场支持支持周小川在现场咨询">
                    <path d="M3.88515455,165.543103 L10.684175,165.543103 C12.8298866,165.543103 14.5693295,167.212386 14.5693295,169.271552 C14.5693295,171.330717 12.8298866,173 10.684175,173 L3.88515455,173 C1.73944294,173 0,171.330717 0,169.271552 C0,167.212386 1.73944294,165.543103 3.88515455,165.543103 Z M183.088582,165.543103 L199.114846,165.543103 C201.260557,165.543103 203,167.212386 203,169.271552 C203,171.330717 201.260557,173 199.114846,173 L183.088582,173 C180.942871,173 179.203428,171.330717 179.203428,169.271552 C179.203428,167.212386 180.942871,165.543103 183.088582,165.543103 L183.088582,165.543103 Z M27.6818948,165.543103 L168.03361,165.543103 C170.179321,165.543103 171.918764,167.212386 171.918764,169.271552 C171.918764,171.330717 170.179321,173 168.03361,173 L27.6818948,173 C25.5361833,173 23.7967404,171.330717 23.7967404,169.271552 C23.7967404,167.212386 25.5361833,165.543103 27.6818948,165.543103 Z" id="形状" fill="#261D50"></path>
                    <polygon id="路径" fill="#FFFFFF" points="88.0661765 125.275862 116.426471 125.275862 113.981603 155.103448 90.5110441 155.103448"></polygon>
                    <polygon id="路径" fill="#5B908E" opacity="0.606933594" points="89.5588235 147.646552 114.933824 147.646552 112.74614 155.103448 91.7466778 155.103448 89.5589947 147.646552"></polygon>
                    <path d="M115.134441,156.594828 L87.8659016,156.594828 L85.0808824,123.784483 L117.919118,123.784483 L115.134441,156.594828 Z M91.49567,152.790729 L111.504672,152.790729 L113.644532,127.588581 L89.3558098,127.588581 L91.49567,152.790729 Z" id="形状" fill="#261D50"></path>
                    <path d="M67.2195348,1.5763513 L184.276955,1.5763513 C189.67121,1.5763513 194.044118,5.95436942 194.044118,11.3549285 L194.044118,115.497285 C194.044118,120.897844 189.67121,125.275862 184.276955,125.275862 L18.7230447,125.275862 C13.3287899,125.275862 8.95588235,120.897844 8.95588235,115.497285 L8.95588235,11.3549285 C8.95588235,5.95436942 13.3287899,1.5763513 18.7230447,1.5763513 L27.757585,1.5763513 M40.7358249,1.6726529 L57.9212099,1.6726529" id="形状" fill="#FFFFFF"></path>
                    <polygon id="路径" fill="#5B908E" points="62.6911765 155.103448 141.801471 155.103448 141.801471 167.034483 62.6911765 167.034483"></polygon>
                    <path d="M143.294118,168.525862 L59.7058824,168.525862 L59.7058824,152.12069 L143.294118,152.12069 L143.294118,168.525862 Z M63.5712265,164.665901 L139.428773,164.665901 L139.428773,155.980819 L63.5712265,155.980819 L63.5712265,164.665901 Z" id="形状" fill="#261D50"></path>
                    <path d="M186.580882,12.8378391 L186.580882,10.4396552 L17.9117647,10.4396552 L17.9117647,117.818796 L23.7967404,117.818796 L186.580882,12.8378391 Z M56.4786881,23.158774 C57.5571382,23.158774 58.4314351,24.0348232 58.4314351,25.115505 C58.4314351,26.1961866 57.5572514,27.0722865 56.4788011,27.0723491 C55.4003509,27.0724118 54.5260346,26.1964134 54.525941,25.1157317 C54.525896,24.5967299 54.7316114,24.0989696 55.0978274,23.731964 C55.4640433,23.3649584 55.9607579,23.158774 56.4786881,23.158774 L56.4786881,23.158774 Z M49.3998952,27.0725192 L36.2188528,27.0725192 C35.4100648,27.0725192 34.7543863,27.7294781 34.7542926,28.5399398 L34.7542926,51.9652777 C34.7542926,53.0459817 33.880018,53.9220653 32.8015456,53.9220653 C31.7230732,53.9220653 30.8487986,53.0459817 30.8487986,51.9652777 L30.8487986,28.5401098 C30.8487986,27.1129064 31.4145057,25.7441422 32.4215911,24.7349411 C33.4286765,23.72574 34.7945964,23.158774 36.2188528,23.158774 L49.4000649,23.158774 C50.4785842,23.158774 51.3528967,24.0348957 51.3528967,25.1156467 C51.3528967,26.1963975 50.4785842,27.0725192 49.4000649,27.0725192 L49.3998952,27.0725192 Z M89.3507779,117.818796 L186.580882,56.9356336 L186.580882,45.2535713 L70.69227,117.818796 L89.3509476,117.818796 L89.3507779,117.818796 Z M146.940016,117.818966 L186.580882,117.818966 L186.580882,92.9967724 L146.940016,117.818966 L146.940016,117.818966 Z" id="形状" fill="#5B908E"></path>
                    <path d="M182.724541,119.310345 L21.7681062,119.310345 C18.8139413,119.310345 16.4191176,116.915832 16.4191176,113.962259 L16.4191176,14.296193 C16.4191176,11.3426199 18.8139413,8.94827586 21.7681062,8.94827586 L182.724541,8.94827586 C185.678706,8.94827586 188.073529,11.3426199 188.073529,14.296193 L188.073529,113.962259 C188.073529,115.380644 187.510042,116.740951 186.506907,117.743916 C185.503772,118.746882 184.143211,119.310345 182.724541,119.310345 L182.724541,119.310345 Z M21.7681062,12.8378391 C20.9624248,12.8378391 20.3092911,13.490842 20.3092911,14.2963619 L20.3092911,113.962428 C20.3092911,114.349252 20.4628994,114.720251 20.7364487,114.993809 C21.0099979,115.267366 21.3810353,115.42112 21.7679372,115.42112 L182.724541,115.42112 C183.111472,115.42112 183.482553,115.267431 183.756139,114.993868 C184.029725,114.720306 184.183355,114.349281 184.183355,113.962428 L184.183355,14.296193 C184.183355,13.490805 183.53026,12.8378391 182.724709,12.8378391 L21.7681062,12.8378391 Z" id="形状" fill="#3F3D56"></path>
                    <path d="M19.126837,126.767241 C12.6880137,126.760635 7.46993901,121.545643 7.46323529,115.11053 L7.46323529,11.6567113 C7.46993901,5.2215987 12.6880137,0.00660665749 19.126837,0 L28.1173154,0 C29.1909046,0 30.0612208,0.869814566 30.0612208,1.94278521 C30.0612208,3.01575585 29.1909046,3.88557043 28.1173154,3.88557043 L19.126837,3.88557043 C17.0645847,3.88552564 15.0867813,4.70424872 13.6285329,6.16162518 C12.1702844,7.61900165 11.3510462,9.59564731 11.3510462,11.6567113 L11.3510462,115.11053 C11.3510462,117.171594 12.1702844,119.14824 13.6285329,120.605616 C15.0867813,122.062993 17.0645847,122.881716 19.126837,122.881671 L183.873333,122.881671 C188.167689,122.881671 191.648953,119.402413 191.648953,115.11053 L191.648953,11.6567113 C191.648953,7.36482868 188.167689,3.88557043 183.873333,3.88557043 L67.3868071,3.88557043 C66.3132177,3.88557043 65.4429016,3.01575585 65.4429016,1.94278521 C65.4429016,0.869814566 66.3132177,0 67.3868071,0 L183.873333,0 C190.31209,0.00669968969 195.530061,5.22166455 195.536765,11.6567113 L195.536765,115.11053 C195.530061,121.545577 190.31209,126.760542 183.873333,126.767241 L19.126837,126.767241 Z M58.1291009,3.88557043 L41.0273611,3.88557043 C39.9537717,3.88557043 39.0834557,3.01575585 39.0834557,1.94278521 C39.0834557,0.869814566 39.9537717,7.77156117e-15 41.0273611,7.77156117e-15 L58.1291009,7.77156117e-15 C59.2026901,7.77156117e-15 60.0730064,0.869814566 60.0730064,1.94278521 C60.0730064,3.01575585 59.2026901,3.88557043 58.1291009,3.88557043 Z" id="形状" fill="#3F3D56"></path>
                </g>
                <g id="btn_playerbarplay_press" transform="translate(74.000000, 39.000000)">
                    <path d="M19.8,18 C19.8,17.3456535 20.1550967,16.7428467 20.7274158,16.4256397 C21.299735,16.1084328 21.9991157,16.1267964 22.554,16.4736 L36.954,25.4736 C37.4802893,25.8025284 37.8,26.3793759 37.8,27 C37.8,27.6206241 37.4802893,28.1974716 36.954,28.5264 L22.554,37.5264 C21.9991157,37.8732036 21.299735,37.8915672 20.7274158,37.5743603 C20.1550967,37.2571533 19.8,36.6543465 19.8,36 L19.8,18 Z" id="路径" fill="#3F3D56"></path>
                    <path d="M27,54 C12.0888,54 0,41.9112 0,27 C0,12.0888 12.0888,0 27,0 C41.9112,0 54,12.0888 54,27 C54,41.9112 41.9112,54 27,54 Z M27,50.4 C39.924,50.4 50.4,39.924 50.4,27 C50.4,14.076 39.924,3.6 27,3.6 C14.076,3.6 3.6,14.076 3.6,27 C3.6,39.924 14.076,50.4 27,50.4 Z" id="形状" fill="#333333"></path>
                    <polygon id="路径" fill="#FFFFFF" points="32.6034 27 23.4 32.7528 23.4 21.2472"></polygon>
                </g>
            </g>
            <g id="编组-6" transform="translate(183.000000, 274.000000)">
                <g id="编组-5" fill-rule="nonzero">
                    <rect id="矩形" fill="#5B908E" x="0" y="0" width="245" height="58" rx="29"></rect>
                    <g id="播放器" transform="translate(7.000000, 7.000000)">
                        <path d="M22,44 C9.8497355,44 0,34.1502645 0,22 C0,9.8497355 9.8497355,0 22,0 C34.1502645,0 44,9.8497355 44,22 C44,34.1502645 34.1502645,44 22,44 Z" id="路径" fill="#FFFFFF"></path>
                        <path d="M18.3189038,33.7154726 L31.4532151,23.5221625 C31.7934176,23.3016054 32,22.9154193 32,22.5 C32,22.0845807 31.7934176,21.6983946 31.4532151,21.4778375 L18.3189038,11.2845274 C17.591044,10.7182324 17,11.0240317 17,11.9640814 L17,33.0359186 C17,33.9759683 17.591044,34.2817676 18.3189038,33.7154726 L18.3189038,33.7154726 Z" id="路径" fill="#5B908E"></path>
                    </g>
                </g>
                <g id="点击播放" transform="translate(67.000000, 10.000000)" fill="#FFFFFF" font-family="PingFangSC-Medium, PingFang SC" font-size="26" font-weight="400">
                    <g id="观看回放">
                        <text id="Go-to-replay">
                            <tspan x="0" y="28">Go to replay</tspan>
                        </text>
                    </g>
                </g>
            </g>
        </g>
    </g>
</svg>