<?xml version="1.0" encoding="UTF-8"?>
<svg width="38px" height="34px" viewBox="0 0 38 34" version="1.1" xmlns="http://www.w3.org/2000/svg" xmlns:xlink="http://www.w3.org/1999/xlink">
    <!-- Generator: Sketch 55.1 (78136) - https://sketchapp.com -->
    <title>编组</title>
    <desc>Created with Sketch.</desc>
    <g id="页面1" stroke="none" stroke-width="1" fill="none" fill-rule="evenodd">
        <g id="编组" transform="translate(2.000000, 2.453996)">
            <polyline id="路径-2" stroke="#A2A7AD" stroke-width="3" stroke-linecap="round" stroke-linejoin="round" points="3.68915452 0 3.68915452 26 33.6891545 26"></polyline>
            <polyline id="路径-2" stroke="#A2A7AD" stroke-width="3" stroke-linecap="round" stroke-linejoin="round" transform="translate(15.000000, 16.546004) scale(-1, -1) translate(-15.000000, -16.546004) " points="0 3.54600433 0 29.5460043 30 29.5460043"></polyline>
            <path d="M10,10.0460043 C10,11.4267162 11.1192881,12.5460043 12.5,12.5460043 C13.8807119,12.5460043 15,11.4267162 15,10.0460043 C15,8.66529245 13.8807119,7.54600433 12.5,7.54600433 C11.1192881,7.54600433 10,8.66529245 10,10.0460043 Z M25.964895,20.824951 L22.9988688,12.89881 C22.9249391,12.7019089 22.7561242,12.5724958 22.5423252,12.5495118 C22.329053,12.5265278 22.1357412,12.6174683 22.0193444,12.7938742 L18.6642361,17.918222 C18.511372,18.1510777 18.2096827,18.2330296 17.9559628,18.1101165 L12.2092029,15.317312 C11.9559512,15.1943989 11.6537644,15.275853 11.5014271,15.5087087 L8.08883747,20.7200151 C7.97744539,20.8904188 7.97045046,21.0903063 8.06987213,21.2676784 C8.1692938,21.4450504 8.34609873,21.5460043 8.55287356,21.5460043 L25.4494067,21.5460043 C25.6347285,21.5460043 25.7930656,21.465575 25.8994529,21.3166621 C26.0053427,21.1677492 26.028347,20.9948569 25.964895,20.824951 Z" id="形状" fill="#A2A7AD" fill-rule="nonzero"></path>
        </g>
    </g>
</svg>