<?xml version="1.0" encoding="UTF-8"?>
<svg width="26px" height="26px" viewBox="0 0 26 26" version="1.1" xmlns="http://www.w3.org/2000/svg" xmlns:xlink="http://www.w3.org/1999/xlink">
    <!-- Generator: Sketch 55.1 (78136) - https://sketchapp.com -->
    <title>设置</title>
    <desc>Created with Sketch.</desc>
    <g id="页面1" stroke="none" stroke-width="1" fill="none" fill-rule="evenodd">
        <g id="设置" fill="#A2A7AD" fill-rule="nonzero">
            <path d="M6.046875,21.04375 L24.28125,21.04375 C25.175,21.04375 25.9,21.76875 25.9,22.6625 C25.9,23.55625 25.175,24.28125 24.28125,24.28125 L6.046875,24.28125 C5.315625,25.55 3.821875,26.16875 2.40625,25.790625 C0.990625,25.4125 0.00625,24.128125 0.00625,22.665625 C0.00625,21.2 0.990625,19.91875 2.40625,19.540625 C3.821875,19.15625 5.315625,19.775 6.046875,21.04375 L6.046875,21.04375 Z M10.153125,14.571875 L1.628125,14.571875 C0.734375,14.571875 0.009375,13.846875 0.009375,12.953125 C0.009375,12.059375 0.734375,11.334375 1.628125,11.334375 L10.153125,11.334375 C10.73125,10.334375 11.8,9.715625 12.95625,9.715625 C14.1125,9.715625 15.18125,10.33125 15.759375,11.334375 L24.284375,11.334375 C25.178125,11.334375 25.903125,12.059375 25.903125,12.953125 C25.903125,13.846875 25.178125,14.571875 24.284375,14.571875 L15.759375,14.571875 C15.18125,15.571875 14.1125,16.190625 12.95625,16.190625 C11.8,16.190625 10.73125,15.571875 10.153125,14.571875 Z M19.8625,1.625 C20.59375,0.35625 22.0875,-0.2625 23.503125,0.115625 C24.91875,0.49375 25.903125,1.778125 25.903125,3.240625 C25.903125,4.70625 24.91875,5.9875 23.503125,6.365625 C22.0875,6.74375 20.59375,6.125 19.8625,4.85625 L1.628125,4.85625 C0.734375,4.85625 0.009375,4.13125 0.009375,3.2375 C0.009375,2.34375 0.734375,1.61875 1.628125,1.61875 L19.8625,1.61875 L19.8625,1.625 Z" id="形状"></path>
        </g>
    </g>
</svg>