<?xml version="1.0" standalone="no"?><!DOCTYPE svg PUBLIC "-//W3C//DTD SVG 1.1//EN" "http://www.w3.org/Graphics/SVG/1.1/DTD/svg11.dtd"><svg t="1569811913030" class="icon" viewBox="0 0 1024 1024" version="1.1" xmlns="http://www.w3.org/2000/svg" p-id="9513" xmlns:xlink="http://www.w3.org/1999/xlink" width="32" height="32"><defs><style type="text/css"></style></defs><path d="M928 0h-832C44.8 0 0 44.8 0 96v697.6c0 57.6 44.8 102.4 96 102.4h230.4l102.4 102.4c19.2 12.8 44.8 25.6 70.4 25.6s51.2-12.8 70.4-25.6l102.4-102.4h256c51.2 0 96-44.8 96-96v-704c0-51.2-44.8-96-96-96zM275.2 524.8c-38.4 0-64-32-64-64 0-38.4 32-70.4 64-70.4 38.4 0 64 32 64 70.4 0 32-32 64-64 64z m236.8 0c-38.4 0-64-32-64-64 0-38.4 32-70.4 64-70.4 38.4 0 64 32 64 70.4 0 32-25.6 64-64 64z m249.6 0c-38.4 0-64-32-64-64 0-38.4 32-70.4 64-70.4 38.4 0 64 32 64 70.4 6.4 32-25.6 64-64 64z" fill="#19D5A2" p-id="9514"></path></svg>