<?xml version="1.0" encoding="UTF-8"?>
<svg width="26px" height="26px" viewBox="0 0 26 26" version="1.1" xmlns="http://www.w3.org/2000/svg" xmlns:xlink="http://www.w3.org/1999/xlink">
    <!-- Generator: Sketch 55.1 (78136) - https://sketchapp.com -->
    <title>开关 (1)</title>
    <desc>Created with Sketch.</desc>
    <g id="页面1" stroke="none" stroke-width="1" fill="none" fill-rule="evenodd">
        <g id="开关-(1)" fill="#A2A7AD" fill-rule="nonzero">
            <path d="M12.625,26 C5.625,26 0.025,20.4 0.025,13.4 C0.025,9.4 1.825,5.8 5.025,3.4 C5.825,3 6.825,3 7.225,3.8 C7.825,4.6 7.625,5.6 6.825,6 C4.625,7.8 3.425,10.6 3.425,13.4 C3.425,18.6 7.625,22.6 12.625,22.6 C17.625,22.6 21.825,18.4 21.825,13.4 C21.825,10.2 20.225,7.4 17.625,5.6 C16.825,5.2 16.625,4 17.225,3.4 C17.625,2.6 18.825,2.4 19.425,3 C23.025,5.4 25.025,9.2 25.025,13.4 C25.225,20.4 19.625,26 12.625,26 Z" id="路径"></path>
            <path d="M12.625,16.4 C11.625,16.4 11.025,15.6 11.025,14.8 L11.025,1.6 C11.025,0.6 11.825,-1.42108547e-14 12.625,-1.42108547e-14 C13.425,-1.42108547e-14 14.225,0.8 14.225,1.6 L14.225,14.8 C14.225,15.8 13.625,16.4 12.625,16.4 Z" id="路径"></path>
        </g>
    </g>
</svg>