<?xml version="1.0" encoding="UTF-8"?>
<svg width="61px" height="61px" viewBox="0 0 61 61" version="1.1" xmlns="http://www.w3.org/2000/svg" xmlns:xlink="http://www.w3.org/1999/xlink">
    <!-- Generator: Sketch 55.1 (78136) - https://sketchapp.com -->
    <title>用户</title>
    <desc>Created with Sketch.</desc>
    <g id="页面1" stroke="none" stroke-width="1" fill="none" fill-rule="evenodd">
        <g id="用户" fill-rule="nonzero">
            <path d="M30.4996304,0 C13.6824433,0 0,13.6828509 0,30.5011087 C0.0131001142,32.251133 0.17332129,33.9969575 0.478970519,35.7201347 C0.478970519,35.7304826 0.49744932,35.7260478 0.50114508,35.7349174 C0.618027736,36.1704889 1.01106773,36.474634 1.46204273,36.4784864 C2.02346806,36.4780783 2.47837692,36.0228497 2.47837677,35.4614378 C2.47357547,35.4285646 2.46691239,35.3959903 2.45841967,35.3638721 L2.47615932,35.3557416 C2.19018012,33.7536326 2.04180858,32.1299928 2.0326681,30.502587 C2.0326681,14.7812042 14.7778666,2.03631451 30.4988913,2.03631451 C46.2199159,2.03631451 58.9665928,14.7826825 58.9665928,30.502587 C58.9665928,46.2224915 46.2213942,58.9681203 30.4996304,58.9681203 C19.9933234,58.9681203 10.8381863,53.2605266 5.90878137,44.792267 C5.90878137,44.787093 5.902129,44.7841365 5.9006507,44.7789625 C5.88734596,44.7567885 5.87256292,44.7353536 5.85999733,44.7131796 C5.68856145,44.3808645 5.3469428,44.1710588 4.97301489,44.1684378 C4.41187804,44.1688454 3.9570885,44.6236239 3.95668084,45.1847472 C3.9613732,45.3942084 4.03227078,45.596805 4.1592085,45.7634892 L4.142208,45.7738371 C9.42936251,54.8651868 19.2512148,61 30.5011087,61 C47.3175567,61 61,47.3193665 61,30.5011087 C61,13.6828509 47.3175567,0 30.4996304,0 Z" id="路径" fill="#333333"></path>
            <path d="M30.0003676,34.0225653 C36.052453,34.0225653 40.9774919,38.9484787 40.9774919,45 L43,45 C43,37.8324285 37.1684717,32 30.0003676,32 C22.8322635,32 17,37.8324285 17,45 L19.0225081,45 C19.0225081,38.9470083 23.9446062,34.0225653 30.0003676,34.0225653 L30.0003676,34.0225653 Z" id="路径" fill="#333333"></path>
            <path d="M17,45 C17,45.5522847 17.4477153,46 18,46 C18.5522847,46 19,45.5522847 19,45 C19,44.4477153 18.5522847,44 18,44 C17.4477153,44 17,44.4477153 17,45 L17,45 Z" id="路径" fill="#AACAC9"></path>
            <path d="M41,45 C41,45.5522847 41.4477153,46 42,46 C42.5522847,46 43,45.5522847 43,45 C43,44.4477153 42.5522847,44 42,44 C41.4477153,44 41,44.4477153 41,45 L41,45 Z" id="路径" fill="#AACAC9"></path>
            <path d="M26.3433013,30.656881 C29.4674601,33.7810397 34.5327222,33.7810397 37.656881,30.6568809 C40.7810397,27.5327221 40.7810397,22.46746 37.6568809,19.3433013 C35.6359046,17.3223249 32.6902673,16.5330438 29.9295623,17.2727725 C27.1688573,18.0125012 25.0125012,20.1688573 24.2727725,22.9295623 C23.5330438,25.6902674 24.3223249,28.6359046 26.3433013,30.656881 L26.3433013,30.656881 Z" id="路径" fill="#AACAC9"></path>
            <path d="M29.9996331,34 C24.4858579,34 20,29.5143067 20,24 C20,18.4856933 24.4858579,14 29.9996331,14 C35.5134084,14 40,18.486427 40,24 C40,29.513573 35.5141421,34 29.9996331,34 L29.9996331,34 Z M29.9996331,16.0183419 C26.7708718,16.0183419 23.860049,17.9632686 22.624524,20.9461741 C21.3889991,23.9290795 22.0720982,27.3625061 24.3552822,29.6453964 C26.6384661,31.9282868 30.0720814,32.6110452 33.0549827,31.3752915 C36.037884,30.1395377 37.9826145,27.2286428 37.9823178,24 C37.9770612,19.5937447 34.4060506,16.0231932 29.9996331,16.0183419 L29.9996331,16.0183419 Z" id="形状" fill="#333333"></path>
        </g>
    </g>
</svg>