<?xml version="1.0" encoding="UTF-8"?>
<svg width="136px" height="116px" viewBox="0 0 136 116" version="1.1" xmlns="http://www.w3.org/2000/svg" xmlns:xlink="http://www.w3.org/1999/xlink">
    <!-- Generator: Sketch 55.1 (78136) - https://sketchapp.com -->
    <title>编组 6</title>
    <desc>Created with Sketch.</desc>
    <g id="页面1" stroke="none" stroke-width="1" fill="none" fill-rule="evenodd">
        <g id="编组-6" fill-rule="nonzero">
            <g id="电脑支持支持支持出现在现场支持支持周小川在现场咨询">
                <path d="M2.60286216,111 L7.15787093,111 C8.595392,111 9.76073308,112.119288 9.76073308,113.5 C9.76073308,114.880712 8.595392,116 7.15787093,116 L2.60286216,116 C1.16534108,116 0,114.880712 0,113.5 C0,112.119288 1.16534108,111 2.60286216,111 Z M122.660331,111 L133.397138,111 C134.834659,111 136,112.119288 136,113.5 C136,114.880712 134.834659,116 133.397138,116 L122.660331,116 C121.22281,116 120.057469,114.880712 120.057469,113.5 C120.057469,112.119288 121.22281,111 122.660331,111 L122.660331,111 Z M18.5455059,111 L112.574241,111 C114.011762,111 115.177103,112.119288 115.177103,113.5 C115.177103,114.880712 114.011762,116 112.574241,116 L18.5455059,116 C17.1079849,116 15.9426438,114.880712 15.9426438,113.5 C15.9426438,112.119288 17.1079849,111 18.5455059,111 Z" id="形状" fill="#261D50"></path>
                <polygon id="路径" fill="#FFFFFF" points="59 84 78 84 76.3620591 104 60.6379409 104"></polygon>
                <polygon id="路径" fill="#5B908E" opacity="0.606933594" points="60 99 77 99 75.5343601 104 61.4657546 104 60.0001147 99"></polygon>
                <path d="M77.1344037,105 L58.8658257,105 L57,83 L79,83 L77.1344037,105 Z M61.2975917,102.449275 L74.7026376,102.449275 L76.1362385,85.5507246 L59.8639908,85.5507246 L61.2975917,102.449275 Z" id="形状" fill="#261D50"></path>
                <path d="M45.033777,1.05697544 L123.456482,1.05697544 C127.070367,1.05697544 130,3.99252516 130,7.61370925 L130,77.4432662 C130,81.0644503 127.070367,84 123.456482,84 L12.5435176,84 C8.92963263,84 6,81.0644503 6,77.4432662 L6,7.61370925 C6,3.99252516 8.92963263,1.05697544 12.5435176,1.05697544 L18.5962146,1.05697544 M27.290996,1.12154761 L38.8043574,1.12154761" id="形状" fill="#FFFFFF"></path>
                <polygon id="路径" fill="#5B908E" points="42 104 95 104 95 112 42 112"></polygon>
                <path d="M96,113 L40,113 L40,102 L96,102 L96,113 Z M42.5895902,110.411818 L93.4104098,110.411818 L93.4104098,104.588295 L42.5895902,104.588295 L42.5895902,110.411818 Z" id="形状" fill="#261D50"></path>
                <path d="M125,8.60803084 L125,7 L12,7 L12,78.999886 L15.9426438,78.999886 L125,8.60803084 Z M37.8379388,15.5284265 C38.5604473,15.5284265 39.1461831,16.1158352 39.1461831,16.8404542 C39.1461831,17.5650731 38.5605231,18.1525158 37.8380145,18.1525578 C37.115506,18.1525998 36.5297572,17.5652252 36.5296945,16.8406062 C36.5296643,16.492605 36.6674835,16.1588467 36.9128302,15.912762 C37.1581768,15.6666773 37.4909511,15.5284265 37.8379388,15.5284265 L37.8379388,15.5284265 Z M33.0954963,18.1526718 L24.2648472,18.1526718 C23.7229991,18.1526718 23.2837268,18.5931761 23.283664,19.136607 L23.283664,34.84377 C23.283664,35.5684039 22.6979431,36.1558357 21.9754197,36.1558357 C21.2528963,36.1558357 20.6671754,35.5684039 20.6671754,34.84377 L20.6671754,19.136721 C20.6671754,18.1797523 21.0461713,17.2619682 21.7208689,16.5852784 C22.3955665,15.9085887 23.3106656,15.5284265 24.2648472,15.5284265 L33.09561,15.5284265 C33.8181648,15.5284265 34.4039111,16.1158838 34.4039111,16.8405492 C34.4039111,17.5652145 33.8181648,18.1526718 33.09561,18.1526718 L33.0954963,18.1526718 Z M59.8606197,78.999886 L125,38.1764942 L125,30.3434351 L47.3603385,78.999886 L59.8607334,78.999886 L59.8606197,78.999886 Z M98.4425723,79 L125,79 L125,62.3562173 L98.4425723,79 L98.4425723,79 Z" id="形状" fill="#5B908E"></path>
                <path d="M122.416441,80 L14.5835588,80 C12.6044139,80 11,78.3944306 11,76.4140001 L11,9.58588661 C11,7.60545612 12.6044139,6 14.5835588,6 L122.416441,6 C124.395586,6 126,7.60545612 126,9.58588661 L126,76.4140001 C126,77.365056 125.622491,78.2771694 124.95044,78.9496781 C124.278389,79.6221868 123.36688,80 122.416441,80 L122.416441,80 Z M14.5835588,8.60803084 C14.043792,8.60803084 13.6062246,9.04588251 13.6062246,9.58599992 L13.6062246,76.4141134 C13.6062246,76.6734869 13.7091346,76.9222491 13.8923991,77.1056751 C14.0756636,77.2891012 14.3242404,77.3921958 14.5834456,77.3921958 L122.416441,77.3921958 C122.675666,77.3921958 122.924272,77.2891445 123.107561,77.1057152 C123.29085,76.9222859 123.393775,76.6735065 123.393775,76.4141134 L123.393775,9.58588661 C123.393775,9.0458577 122.956233,8.60803084 122.416554,8.60803084 L14.5835588,8.60803084 Z" id="形状" fill="#3F3D56"></path>
                <path d="M12.8140386,85 C8.50034417,84.9955701 5.00449116,81.4988124 5,77.1839393 L5,7.81606073 C5.00449116,3.50118757 8.50034417,0.00442989751 12.8140386,0 L18.8372162,0 C19.5564681,0 20.1395371,0.583228264 20.1395371,1.30267679 C20.1395371,2.02212531 19.5564681,2.60535358 18.8372162,2.60535358 L12.8140386,2.60535358 C11.4324311,2.60532355 10.1074003,3.15429394 9.13044566,4.13149434 C8.153491,5.10869475 7.60464181,6.43407565 7.60464181,7.81606073 L7.60464181,77.1839393 C7.60464181,78.5659243 8.153491,79.8913053 9.13044566,80.8685057 C10.1074003,81.8457061 11.4324311,82.3946764 12.8140386,82.3946464 L123.186075,82.3946464 C126.063082,82.3946464 128.395358,80.0617334 128.395358,77.1839393 L128.395358,7.81606073 C128.395358,4.93826663 126.063082,2.60535358 123.186075,2.60535358 L45.1458412,2.60535358 C44.4265892,2.60535358 43.8435203,2.02212531 43.8435203,1.30267679 C43.8435203,0.583228264 44.4265892,0 45.1458412,0 L123.186075,0 C127.499725,0.00449227748 130.995509,3.50123172 131,7.81606073 L131,77.1839393 C130.995509,81.4987683 127.499725,84.9955077 123.186075,85 L12.8140386,85 Z M38.9436341,2.60535358 L27.4863109,2.60535358 C26.7670589,2.60535358 26.18399,2.02212531 26.18399,1.30267679 C26.18399,0.583228264 26.7670589,7.77156117e-15 27.4863109,7.77156117e-15 L38.9436341,7.77156117e-15 C39.662886,7.77156117e-15 40.245955,0.583228264 40.245955,1.30267679 C40.245955,2.02212531 39.662886,2.60535358 38.9436341,2.60535358 Z" id="形状" fill="#3F3D56"></path>
            </g>
            <g id="btn_playerbarplay_press" transform="translate(50.000000, 26.000000)">
                <path d="M13.2,12 C13.2,11.563769 13.4367311,11.1618978 13.8182772,10.9504265 C14.1998233,10.7389552 14.6660771,10.7511976 15.036,10.9824 L24.636,16.9824 C24.9868595,17.2016856 25.2,17.5862506 25.2,18 C25.2,18.4137494 24.9868595,18.7983144 24.636,19.0176 L15.036,25.0176 C14.6660771,25.2488024 14.1998233,25.2610448 13.8182772,25.0495735 C13.4367311,24.8381022 13.2,24.436231 13.2,24 L13.2,12 Z" id="路径" fill="#3F3D56"></path>
                <path d="M18,36 C8.0592,36 0,27.9408 0,18 C0,8.0592 8.0592,0 18,0 C27.9408,0 36,8.0592 36,18 C36,27.9408 27.9408,36 18,36 Z M18,33.6 C26.616,33.6 33.6,26.616 33.6,18 C33.6,9.384 26.616,2.4 18,2.4 C9.384,2.4 2.4,9.384 2.4,18 C2.4,26.616 9.384,33.6 18,33.6 Z" id="形状" fill="#333333"></path>
                <polygon id="路径" fill="#FFFFFF" points="21.7356 18 15.6 21.8352 15.6 14.1648"></polygon>
            </g>
        </g>
    </g>
</svg>