<?xml version="1.0" encoding="UTF-8"?>
<svg width="30px" height="30px" viewBox="0 0 30 30" version="1.1" xmlns="http://www.w3.org/2000/svg" xmlns:xlink="http://www.w3.org/1999/xlink">
    <!-- Generator: Sketch 55.1 (78136) - https://sketchapp.com -->
    <title>web定位</title>
    <desc>Created with Sketch.</desc>
    <g id="页面1" stroke="none" stroke-width="1" fill="none" fill-rule="evenodd">
        <g id="web定位" fill="#000000" fill-rule="nonzero">
            <path d="M20.1136364,15.75 C20.3181818,16.3636364 20.4545455,17.0454545 20.4545455,17.7272727 C20.4545455,20.7272727 18,23.1818182 15,23.1818182 C14.3181818,23.1818182 13.6363636,23.0454545 13.0227273,22.8409091 L11.6590909,23.6590909 C12.6818182,24.2045455 13.7727272,24.5454545 15,24.5454545 C18.75,24.5454545 21.8181818,21.4772727 21.8181818,17.7272727 C21.8181818,16.5 21.4772727,15.3409091 20.9318182,14.3863636 L20.1136364,15.75 Z M9.88636363,19.7045455 C9.68181819,19.0909091 9.54545453,18.4090909 9.54545453,17.7272727 C9.54545453,14.7272727 12,12.2727272 15,12.2727272 C15.6818182,12.2727272 16.3636364,12.4090909 16.9772727,12.6136364 L18.3409091,11.7954545 C17.3863636,11.25 16.2272727,10.9090909 15,10.9090909 C11.25,10.9090909 8.18181819,13.9772727 8.18181819,17.7272727 C8.18181819,18.9545454 8.52272729,20.1136364 9.06818181,21.0681818 L9.88636363,19.7045455 Z M8.52272726,24.2045455 L16.4318182,19.1590909 L21.4772727,11.25 L13.5681818,16.2954545 L8.52272726,24.2045455 Z M14.5227273,17.25 C14.7954545,16.9772727 15.2045455,16.9772727 15.4772727,17.25 C15.75,17.5227273 15.75,17.9318182 15.4772727,18.2045455 C15.2045455,18.4772727 14.7954546,18.4772727 14.5227273,18.2045455 C14.25,17.9318182 14.25,17.5227273 14.5227273,17.25 Z M3.40909089,2.72727272 C2.99999998,2.72727272 2.72727272,2.99999998 2.72727272,3.40909089 C2.72727272,3.8181818 2.99999998,4.09090906 3.40909089,4.09090906 C3.8181818,4.09090906 4.09090906,3.8181818 4.09090906,3.40909089 C4.09090906,2.99999998 3.8181818,2.72727272 3.40909089,2.72727272 Z M27.2727273,0 L2.72727272,0 C1.22727273,0 0,1.22727273 0,2.72727272 L0,27.2727273 C0,28.7727273 1.22727273,30 2.72727272,30 L27.2727273,30 C28.7727273,30 30,28.7727273 30,27.2727273 L30,2.72727272 C30,1.22727273 28.7727273,0 27.2727273,0 Z M28.6363637,27.2727273 C28.6363637,28.0227273 28.0227273,28.6363637 27.2727273,28.6363637 L2.72727272,28.6363637 C1.97727271,28.6363637 1.36363634,28.0227273 1.36363634,27.2727273 L1.36363634,6.81818181 L28.6363637,6.81818181 L28.6363637,27.2727273 Z M28.6363637,5.45454544 L1.36363634,5.45454544 L1.36363634,2.72727272 C1.36363634,1.97727271 1.97727271,1.36363634 2.72727272,1.36363634 L27.2727273,1.36363634 C28.0227273,1.36363634 28.6363637,1.97727271 28.6363637,2.72727272 L28.6363637,5.45454544 Z M26.5909091,2.72727272 L11.5909091,2.72727272 C11.1818182,2.72727272 10.9090909,2.99999998 10.9090909,3.40909089 C10.9090909,3.8181818 11.1818182,4.09090906 11.5909091,4.09090906 L26.5909091,4.09090906 C27,4.09090906 27.2727272,3.8181818 27.2727272,3.40909089 C27.2727272,2.99999998 27,2.72727272 26.5909091,2.72727272 Z M8.86363636,2.72727272 C8.45454545,2.72727272 8.18181819,2.99999998 8.18181819,3.40909089 C8.18181819,3.8181818 8.45454545,4.09090906 8.86363636,4.09090906 C9.27272727,4.09090906 9.54545453,3.8181818 9.54545453,3.40909089 C9.54545453,2.99999998 9.27272727,2.72727272 8.86363636,2.72727272 Z M6.13636364,2.72727272 C5.72727273,2.72727272 5.45454547,2.99999998 5.45454547,3.40909089 C5.45454547,3.8181818 5.72727273,4.09090906 6.13636364,4.09090906 C6.54545455,4.09090906 6.81818181,3.8181818 6.81818181,3.40909089 C6.81818181,2.99999998 6.54545455,2.72727272 6.13636364,2.72727272 Z" id="形状"></path>
        </g>
    </g>
</svg>