<?xml version="1.0" encoding="UTF-8"?>
<svg width="124px" height="123px" viewBox="0 0 124 123" version="1.1" xmlns="http://www.w3.org/2000/svg" xmlns:xlink="http://www.w3.org/1999/xlink">
    <!-- Generator: Sketch 55.1 (78136) - https://sketchapp.com -->
    <title>demo</title>
    <desc>Created with Sketch.</desc>
    <g id="页面1" stroke="none" stroke-width="1" fill="none" fill-rule="evenodd">
        <g id="demo" fill-rule="nonzero">
            <path d="M5.82812504,9 L119.171875,9 C120.390625,9 121,9.60666668 121,10.82 L121,98.18 C121,99.3933333 120.390625,100 119.171875,100 L5.82812504,100 C4.60937501,100 4,99.3933333 4,98.18 L4,10.82 C4,9.60666668 4.60937501,9 5.82812504,9 Z" id="Shape" fill="#FFFFFF"></path>
            <path d="M17.6538541,38.4252771 L17.6538541,52.9201308 L32.2692374,52.9201308 L32.2692374,38.4252771 L17.6538541,38.4252771 Z M15.8123158,34.8015638 L107.187693,34.8015638 C107.686443,34.8015638 108.137692,35.000868 108.464712,35.3270022 C108.807265,35.6638028 109,36.122355 109,36.6007375 L109,90.9818043 C108.993043,91.9718833 108.185997,92.7730812 107.187693,92.7809817 L15.8123158,92.7809817 C15.3310471,92.7819445 14.8692358,92.5926414 14.5290982,92.2549688 C14.1889606,91.9172962 13.9985489,91.4591029 14,90.9818043 L14,36.6007375 C14,36.1115363 14.2009699,35.6658195 14.529816,35.3378734 C14.8677152,34.9960833 15.3296717,34.8029046 15.8123158,34.8015638 Z M105.346154,38.4252771 L90.7307709,38.4252771 L90.7307709,52.9201308 L105.346154,52.9201308 L105.346154,38.4252771 Z M87.076925,38.4252771 L72.4615417,38.4252771 L72.4615417,52.9201308 L87.076925,52.9201308 L87.076925,38.4252771 Z M68.8076958,38.4252771 L54.1923125,38.4252771 L54.1923125,52.9201308 L68.8076958,52.9201308 L68.8076958,38.4252771 Z M50.5384666,38.4252771 L35.9230833,38.4252771 L35.9230833,52.9201308 L50.5384666,52.9201308 L50.5384666,38.4252771 Z M17.6538541,56.543844 L17.6538541,71.0386976 L32.2692374,71.0386976 L32.2692374,56.543844 L17.6538541,56.543844 Z M105.346154,56.543844 L90.7307709,56.543844 L90.7307709,71.0386976 L105.346154,71.0386976 L105.346154,56.543844 Z M87.076925,56.543844 L72.4615417,56.543844 L72.4615417,71.0386976 L87.076925,71.0386976 L87.076925,56.543844 Z M68.8076958,56.543844 L54.1923125,56.543844 L54.1923125,71.0386976 L68.8076958,71.0386976 L68.8076958,56.543844 Z M50.5384666,56.543844 L35.9230833,56.543844 L35.9230833,71.0386976 L50.5384666,71.0386976 L50.5384666,56.543844 Z M17.6538541,74.662411 L17.6538541,89.1572645 L32.2692374,89.1572645 L32.2692374,74.662411 L17.6538541,74.662411 Z M105.346154,74.662411 L90.7307709,74.662411 L90.7307709,89.1572645 L105.346154,89.1572645 L105.346154,74.662411 Z M87.076925,74.662411 L72.4615417,74.662411 L72.4615417,89.1572645 L87.076925,89.1572645 L87.076925,74.662411 Z M68.8076958,74.662411 L54.1923125,74.662411 L54.1923125,89.1572645 L68.8076958,89.1572645 L68.8076958,74.662411 Z M50.5384666,74.662411 L35.9230833,74.662411 L35.9230833,89.1572645 L50.5384666,89.1572645 L50.5384666,74.662411 Z M28.6153001,5.82997524 C28.6153001,4.81895914 29.4466416,4 30.4423146,4 L92.5576937,4 C93.0454058,4 93.5128811,4.19335246 93.8560256,4.53707031 C94.1991702,4.88078817 94.3894938,5.34630937 94.3847082,5.82997524 L94.3847082,9.41745152 C94.3847082,10.4210853 93.5696235,11.2374898 92.5576937,11.2474268 L30.4423146,11.2474268 C29.9546025,11.2474268 29.4871273,11.0540743 29.1439827,10.7103564 C28.8008382,10.3666386 28.6105145,9.90111739 28.6153001,9.41745152 L28.6153001,5.82997524 Z M91.2971169,101.930854 L98.7509624,101.992457 L102.770193,116.862365 C103.031443,117.831709 101.776347,120.176251 99.8635585,120.685383 C97.9489433,121.192703 95.844328,118.763003 95.5849051,117.79366 L91.2971169,101.930854 Z M31.0378913,101.840262 L26.7300071,117.7846 C26.4669302,118.759379 25.2958727,121.589499 22.6632767,120.890123 C20.0288538,120.190746 19.2834693,117.826273 19.5465463,116.851494 L23.5895267,101.889182 L31.0360645,101.840262 L31.0378913,101.840262 Z M43.2307297,25.7404683 C43.2307297,24.7403234 44.0620249,23.9304235 45.0430824,23.9304235 L77.9569259,23.9304235 C78.9580796,23.9304235 79.7692334,24.7330761 79.7692334,25.7404683 L79.7692334,27.5559488 C79.7692334,28.5560937 78.9379834,29.3659936 77.9569259,29.3659936 L45.0430824,29.3659936 C44.5602046,29.3659936 44.0972884,29.1749011 43.7570448,28.8350823 C43.4168012,28.4952635 43.2273675,28.0348325 43.2307297,27.5559488 L43.2307297,25.7404683 Z M56.0192355,42.0326838 C56.0192355,41.0415982 56.8431777,40.2371338 57.8278891,40.2371338 L65.1721192,40.2371338 C66.1696191,40.2371338 66.9807729,41.0542812 66.9807729,42.030872 L66.9807729,49.3145358 C66.9807729,50.3038095 66.1568306,51.108274 65.1721192,51.108274 L57.8278891,51.108274 C56.8314866,51.1023388 56.02522,50.3027211 56.0192355,49.3145358 L56.0192355,42.030872 L56.0192355,42.0326838 Z" id="Shape" fill="#5B908E"></path>
            <path d="M25.5294134,5.46167544 C25.5394207,2.44942345 27.982834,0.00999093633 31,0 L93,0 C94.4508887,0 95.8423542,0.575424805 96.8682885,1.59968764 C97.8942227,2.62395048 98.4705866,4.01314902 98.4705866,5.46167544 L118.520292,5.46167544 C119.972149,5.46022616 121.365119,6.03464521 122.392763,7.05856679 C123.420408,8.08248838 123.998547,9.47203806 124,10.9215304 L124,98.3101589 C124.001457,99.76071 123.424309,101.152136 122.396085,102.176977 C121.367861,103.201818 119.973205,103.775707 118.520292,103.771835 L101.514057,103.771835 L104.825586,116.11158 C105.204461,117.512345 105.009873,119.006031 104.28471,120.263437 C103.559547,121.520843 102.363331,122.438758 100.959704,122.814876 C99.5561688,123.189218 98.0611409,122.991027 96.8040904,122.263979 C95.5470399,121.536932 94.6311399,120.3407 94.2582338,118.938907 L90.1862928,103.771835 L33.0605896,103.771835 L28.9922956,118.931625 C28.6190166,120.333487 27.7026726,121.529607 26.4452469,122.256333 C25.1878211,122.983058 23.6925415,123.180729 22.2890019,122.805774 C20.8857815,122.429634 19.6898934,121.512 18.9647756,120.255014 C18.2396577,118.998028 18.0447974,117.504811 18.4231196,116.104298 L21.7328253,103.771835 L5.47970847,103.771835 C4.02785083,103.773284 2.63488091,103.198865 1.60723659,102.174943 C0.579592261,101.151022 0.00145291386,99.7614719 -1.42108543e-14,98.3119796 L-1.42108543e-14,10.923351 C-0.00145682017,9.47279995 0.575690971,8.08137359 1.60391483,7.05653294 C2.63213868,6.03169229 4.02679478,5.45780268 5.47970847,5.46167544 L25.5294134,5.46167544 Z M25.5294134,9.10273396 L5.47970847,9.10273396 C4.99437386,9.09890334 4.52762996,9.28891867 4.18340952,9.6305266 C3.83918908,9.97213454 3.64705771,10.4369719 3.64705771,10.9215304 L3.64705771,98.3101589 C3.64705771,99.3132867 4.46764975,100.128956 5.47970847,100.128956 L107.80341,100.128956 C108.806351,100.125256 109.411762,100.128956 109.411762,100.128956 L118.520292,100.128956 C119.00531,100.132783 119.471775,99.9430165 119.815942,99.6018034 C120.160109,99.2605903 120.35294,98.7962228 120.35294,98.3119796 L120.35294,10.923351 C120.35294,9.92022324 119.53235,9.10461316 118.520292,9.104613 L98.4705866,9.104613 C98.4605794,12.1168651 96.0171661,14.5562977 92.9999985,14.5662886 L31.0000015,14.5662886 C29.5491113,14.5662886 28.1576458,13.9908638 27.1317115,12.9666009 C26.1057772,11.942338 25.5294133,10.5531394 25.5294134,9.104613 L25.5294134,9.10273396 Z M93.9664692,103.784578 L97.7812924,117.995858 C97.9033151,118.46541 98.2079929,118.866926 98.6277189,119.11131 C99.047445,119.355694 99.5475057,119.422735 100.016939,119.297557 C100.990704,119.037217 101.566939,118.03591 101.302528,117.054629 L97.7411749,103.779117 L93.9664692,103.784578 Z M25.5020605,103.795502 L21.9461783,117.045527 C21.6817666,118.028628 22.2598254,119.029935 23.2317666,119.288454 C23.7011843,119.413736 24.2012614,119.346991 24.6212327,119.103005 C25.0412041,118.859019 25.3464058,118.457929 25.469237,117.988576 L29.2804133,103.780937 L25.5020605,103.795502 Z M29.1764137,5.47988113 L29.1764137,9.08822796 C29.1725827,9.57358867 29.3629856,10.0404053 29.7053862,10.3849828 C30.0477868,10.7295603 30.5138332,10.923351 31.0000015,10.923351 L92.9999985,10.923351 C93.993822,10.923351 94.8236192,10.1004585 94.8236192,9.08458698 L94.8236192,5.47988113 C94.8283959,4.99389236 94.6384259,4.5261354 94.2959187,4.18076677 C93.9534116,3.83539815 93.4868047,3.64111707 92.9999985,3.64111707 L31.0000015,3.64111707 C30.006178,3.64111707 29.1764137,4.46400959 29.1764137,5.47988113 Z M38.2941188,78.269451 C38.2941188,77.2736054 39.1165305,76.4652775 40.0994127,76.4652775 L47.4300006,76.4652775 C48.4256476,76.4652775 49.2352948,77.2863493 49.2352948,78.2676305 L49.2352948,85.5862757 C49.2352948,86.5803005 48.4128831,87.3886285 47.4300006,87.3886285 L40.0994127,87.3886285 C39.1048612,87.3826648 38.3000922,86.5792069 38.2941188,85.5862757 L38.2941188,78.2676305 L38.2941188,78.269451 Z M41.9411773,83.745691 L45.588236,83.745691 L45.588236,80.1045739 L41.9411773,80.1045739 L41.9411773,83.745691 Z M56.5294121,78.2658098 C56.5294121,77.271785 57.3518238,76.463457 58.334706,76.463457 L65.665294,76.463457 C66.6609409,76.463457 67.4705879,77.2845289 67.4705879,78.2658098 L67.4705879,85.584455 C67.4705879,86.5784799 66.6481762,87.386808 65.665294,87.386808 L58.334706,87.386808 C57.3401545,87.3808443 56.5353855,86.5773863 56.5294121,85.584455 L56.5294121,78.2658098 Z M38.2941188,60.0602248 C38.2941188,59.0661999 39.1165305,58.257872 40.0994127,58.257872 L47.4300006,58.257872 C48.4256476,58.257872 49.2352948,59.0789438 49.2352948,60.0602248 L49.2352948,67.37887 C49.2352948,68.3728949 48.4128831,69.181223 47.4300006,69.181223 L40.0994127,69.181223 C39.1048611,69.1752593 38.3000921,68.3718013 38.2941188,67.37887 L38.2941188,60.0602248 Z M41.9411773,65.5401059 L45.588236,65.5401059 L45.588236,61.898989 L41.9411773,61.898989 L41.9411773,65.5401059 Z M60.1764706,83.745691 L63.8235294,83.745691 L63.8235294,80.1045739 L60.1764706,80.1045739 L60.1764706,83.745691 Z M92.9999985,60.0602248 C92.9999985,59.0661999 93.8224103,58.257872 94.8052927,58.257872 L102.135881,58.257872 C103.131528,58.257872 103.941175,59.0789438 103.941175,60.0602248 L103.941175,67.37887 C103.941175,68.3728949 103.118763,69.181223 102.135881,69.181223 L94.8052927,69.181223 C93.810741,69.1752594 93.0059719,68.3718014 92.9999985,67.37887 L92.9999985,60.0602248 Z M96.6470573,65.5401059 L100.294116,65.5401059 L100.294116,61.898989 L96.6470573,61.898989 L96.6470573,65.5401059 Z M56.5294121,41.85464 C56.5294121,40.8606151 57.3518238,40.0522869 58.334706,40.0522869 L65.665294,40.0522869 C66.6609409,40.0522869 67.4705879,40.8733588 67.4705879,41.85464 L67.4705879,49.173285 C67.4705879,50.1673099 66.6481762,50.975638 65.665294,50.975638 L58.334706,50.975638 C57.3401545,50.9696742 56.5353855,50.1662163 56.5294121,49.173285 L56.5294121,41.85464 Z M60.1764706,47.3345209 L63.8235294,47.3345209 L63.8235294,43.693404 L60.1764706,43.693404 L60.1764706,47.3345209 Z" id="Shape" fill="#3F3D56"></path>
            <path d="M39,41.8150001 C39,40.8140002 39.8268333,40 40.8149999,40 L48.1849999,40 C49.1859998,40 50,40.8268333 50,41.8150001 L50,49.1849999 C50,50.1859998 49.1731667,51 48.1849999,51 L40.8149999,51 C39.8151012,50.9939944 39.0060055,50.1848986 39,49.1849999 L39,41.8150001 Z" id="Shape" fill="#5B908E"></path>
            <path d="M42.6666666,47.3333333 L46.3333333,47.3333333 L46.3333333,43.6666667 L42.6666666,43.6666667 L42.6666666,47.3333333 Z M39,41.8150001 C39,40.8140002 39.8268333,40 40.8149999,40 L48.1849999,40 C49.1859998,40 50,40.8268333 50,41.8150001 L50,49.1849999 C50,50.1859998 49.1731667,51 48.1849999,51 L40.8149999,51 C39.8151012,50.9939944 39.0060055,50.1848986 39,49.1849999 L39,41.8150001 Z" id="Shape" fill="#3F3D56"></path>
            <path d="M23.6666667,66.3333333 L27.3333333,66.3333333 L27.3333333,62.6666667 L23.6666667,62.6666667 L23.6666667,66.3333333 Z M20,60.8149999 C20,59.814 20.8268333,59 21.8149999,59 L29.1849999,59 C30.1859998,59 31,59.8268333 31,60.8149999 L31,68.1849999 C31,69.1859998 30.1731667,70 29.1849999,70 L21.8149999,70 C20.8151012,69.9939944 20.0060055,69.1848986 20,68.1849999 L20,60.8149999 Z" id="Shape" fill="#5B908E"></path>
            <path d="M78.6666667,83.3333333 L82.3333334,83.3333333 L82.3333334,79.6666666 L78.6666667,79.6666666 L78.6666667,83.3333333 Z M75,77.8149999 C75,76.814 75.8268333,76 76.8150001,76 L84.1850001,76 C85.186,76 86,76.8268333 86,77.8149999 L86,85.1849999 C86,86.1859998 85.1731667,87 84.1850001,87 L76.8150001,87 C75.8151013,86.9939945 75.0060055,86.1848987 75,85.1849999 L75,77.8149999 Z" id="Shape" fill="#5B908E"></path>
            <path d="M93,41.8150001 C93,40.8140002 93.8268333,40 94.8150001,40 L102.185,40 C103.186,40 104,40.8268333 104,41.8150001 L104,49.1849999 C104,50.1859998 103.173167,51 102.185,51 L94.8150001,51 C93.8151013,50.9939945 93.0060055,50.1848987 93,49.1849999 L93,41.8150001 Z" id="Shape" fill="#3F3D56"></path>
            <path d="M96.6666667,47.3333333 L100.333333,47.3333333 L100.333333,43.6666667 L96.6666667,43.6666667 L96.6666667,47.3333333 Z M93,41.8150001 C93,40.8140002 93.8268333,40 94.8150001,40 L102.185,40 C103.186,40 104,40.8268333 104,41.8150001 L104,49.1849999 C104,50.1859998 103.173167,51 102.185,51 L94.8150001,51 C93.8151013,50.9939945 93.0060055,50.1848987 93,49.1849999 L93,41.8150001 Z" id="Shape" fill="#5B908E"></path>
            <path d="M56,60.8149999 C56,59.814 56.8268333,59 57.8149999,59 L65.1850001,59 C66.186,59 67,59.8268333 67,60.8149999 L67,68.1849999 C67,69.1859998 66.1731667,70 65.1850001,70 L57.8149999,70 C56.8151013,69.9939944 56.0060055,69.1848986 56,68.1849999 L56,60.8149999 Z" id="Shape" fill="#5B908E"></path>
            <path d="M59.6666666,66.3333333 L63.3333334,66.3333333 L63.3333334,62.6666667 L59.6666666,62.6666667 L59.6666666,66.3333333 Z M56,60.8149999 C56,59.814 56.8268333,59 57.8149999,59 L65.1850001,59 C66.186,59 67,59.8268333 67,60.8149999 L67,68.1849999 C67,69.1859998 66.1731667,70 65.1850001,70 L57.8149999,70 C56.8151013,69.9939944 56.0060055,69.1848986 56,68.1849999 L56,60.8149999 Z" id="Shape" fill="#3F3D56"></path>
        </g>
    </g>
</svg>